<?xml version="1.0" encoding="UTF-8"?>
<svg id="Capa_1" data-name="Capa 1" xmlns="http://www.w3.org/2000/svg" viewBox="0 0 994.64 234.65">
  <defs>
    <style>
      .cls-1 {
        fill: #fff;
      }

      .cls-2 {
        fill: #16f98a;
      }
    </style>
  </defs>
  <g>
    <path class="cls-1" d="m378.58,31.96v29.79c0,2.98.73,5.27,2.2,6.88,1.46,1.61,3.62,2.41,6.45,2.41s5.01-.8,6.52-2.41c1.51-1.61,2.27-3.9,2.27-6.88v-29.79h12.13v29.71c0,4.44-.95,8.2-2.84,11.28-1.89,3.07-4.43,5.39-7.62,6.95s-6.75,2.34-10.67,2.34-7.44-.77-10.53-2.31c-3.1-1.54-5.54-3.85-7.34-6.95-1.8-3.1-2.69-6.87-2.69-11.31v-29.71h12.13Z"/>
    <path class="cls-1" d="m428.79,72.38h15.89v9.36h-28.01V31.96h12.13v40.42Z"/>
    <path class="cls-1" d="m486.31,31.96v9.72h-13.19v40.07h-12.13v-40.07h-13.19v-9.72h38.51Z"/>
    <path class="cls-1" d="m504.53,31.96v49.78h-12.13V31.96h12.13Z"/>
    <path class="cls-1" d="m569.7,31.96v49.78h-12.13v-29.86l-11.13,29.86h-9.79l-11.21-29.93v29.93h-12.13V31.96h14.33l13.97,34.47,13.83-34.47h14.25Z"/>
    <path class="cls-1" d="m609.42,72.95h-18.58l-2.98,8.79h-12.69l18.01-49.78h14.04l18.01,49.78h-12.84l-2.98-8.79Zm-3.12-9.36l-6.17-18.23-6.1,18.23h12.27Z"/>
    <path class="cls-1" d="m666.51,31.96v9.72h-13.19v40.07h-12.13v-40.07h-13.19v-9.72h38.51Z"/>
    <path class="cls-1" d="m684.73,41.67v10.07h16.24v9.36h-16.24v10.92h18.37v9.72h-30.49V31.96h30.49v9.72h-18.37Z"/>
    <path class="cls-1" d="m758.41,31.96v9.72h-20.28v10.5h15.18v9.43h-15.18v20.14h-12.13V31.96h32.41Z"/>
    <path class="cls-1" d="m790.18,81.74l-10.35-18.79h-2.91v18.79h-12.13V31.96h20.35c3.92,0,7.27.69,10.03,2.06,2.77,1.37,4.83,3.25,6.21,5.64,1.37,2.39,2.06,5.05,2.06,7.98,0,3.31-.93,6.27-2.8,8.87-1.87,2.6-4.62,4.44-8.26,5.53l11.49,19.71h-13.69Zm-13.26-27.37h7.52c2.22,0,3.89-.54,5-1.63,1.11-1.09,1.67-2.62,1.67-4.61s-.56-3.38-1.67-4.47c-1.11-1.09-2.78-1.63-5-1.63h-7.52v12.34Z"/>
    <path class="cls-1" d="m823.16,31.96v49.78h-12.13V31.96h12.13Z"/>
    <path class="cls-1" d="m840.18,80.47c-2.88-1.18-5.19-2.93-6.91-5.25-1.73-2.32-2.64-5.11-2.73-8.37h12.91c.19,1.84.83,3.25,1.91,4.22,1.09.97,2.51,1.45,4.26,1.45s3.21-.41,4.25-1.24c1.04-.83,1.56-1.97,1.56-3.44,0-1.23-.41-2.25-1.24-3.05-.83-.8-1.84-1.46-3.05-1.99-1.21-.52-2.92-1.11-5.14-1.77-3.22-.99-5.84-1.99-7.87-2.98-2.03-.99-3.78-2.46-5.25-4.4-1.47-1.94-2.2-4.47-2.2-7.59,0-4.63,1.68-8.26,5.04-10.89,3.36-2.62,7.73-3.94,13.12-3.94s9.9,1.31,13.26,3.94c3.36,2.62,5.15,6.28,5.39,10.96h-13.12c-.1-1.61-.69-2.87-1.77-3.79-1.09-.92-2.48-1.38-4.18-1.38-1.47,0-2.65.39-3.55,1.17-.9.78-1.35,1.9-1.35,3.37,0,1.61.76,2.86,2.27,3.76,1.51.9,3.88,1.87,7.09,2.91,3.21,1.09,5.83,2.13,7.84,3.12,2.01.99,3.75,2.44,5.21,4.33,1.46,1.89,2.2,4.33,2.2,7.3s-.72,5.41-2.16,7.73c-1.44,2.32-3.53,4.16-6.28,5.53-2.74,1.37-5.98,2.06-9.72,2.06s-6.9-.59-9.79-1.77Z"/>
    <path class="cls-1" d="m912.66,60.5c1.75,2.25,2.62,4.81,2.62,7.69,0,4.16-1.45,7.46-4.36,9.89-2.91,2.44-6.96,3.65-12.16,3.65h-23.19V31.96h22.41c5.06,0,9.02,1.16,11.88,3.47,2.86,2.32,4.29,5.46,4.29,9.43,0,2.93-.77,5.37-2.3,7.3-1.54,1.94-3.58,3.29-6.13,4.04,2.88.62,5.2,2.05,6.95,4.29Zm-24.96-8.4h7.94c1.99,0,3.51-.44,4.57-1.31,1.06-.88,1.6-2.16,1.6-3.87s-.53-3-1.6-3.9c-1.06-.9-2.59-1.35-4.57-1.35h-7.94v10.42Zm13.65,18.47c1.11-.92,1.67-2.26,1.67-4.01s-.58-3.12-1.74-4.11c-1.16-.99-2.75-1.49-4.79-1.49h-8.79v10.99h8.94c2.03,0,3.6-.46,4.72-1.38Z"/>
    <path class="cls-1" d="m934.43,41.67v10.07h16.24v9.36h-16.24v10.92h18.37v9.72h-30.49V31.96h30.49v9.72h-18.37Z"/>
    <path class="cls-1" d="m972.8,41.67v10.07h16.24v9.36h-16.24v10.92h18.37v9.72h-30.49V31.96h30.49v9.72h-18.37Z"/>
    <path class="cls-2" d="m433.66,117.46v17.25h-23.42v71.14h-21.53v-71.14h-23.42v-17.25h68.37Z"/>
    <path class="cls-2" d="m489.56,205.85l-18.38-33.37h-5.16v33.37h-21.53v-88.39h36.14c6.97,0,12.91,1.22,17.82,3.65,4.91,2.44,8.58,5.77,11.02,10.01,2.43,4.24,3.65,8.96,3.65,14.16,0,5.88-1.66,11.12-4.97,15.74-3.32,4.62-8.21,7.89-14.67,9.82l20.4,35h-24.3Zm-23.54-48.6h13.35c3.94,0,6.9-.96,8.88-2.9,1.97-1.93,2.96-4.66,2.96-8.18s-.99-6-2.96-7.93c-1.97-1.93-4.93-2.9-8.88-2.9h-13.35v21.91Z"/>
    <path class="cls-2" d="m581.6,190.24h-32.99l-5.29,15.61h-22.54l31.98-88.39h24.93l31.98,88.39h-22.79l-5.29-15.61Zm-5.54-16.62l-10.95-32.36-10.83,32.36h21.78Z"/>
    <path class="cls-2" d="m621.39,138.17c3.78-6.84,9.04-12.17,15.8-15.99,6.76-3.82,14.42-5.73,22.98-5.73,10.49,0,19.47,2.77,26.94,8.31,7.47,5.54,12.47,13.09,14.98,22.66h-23.67c-1.76-3.69-4.26-6.5-7.49-8.44-3.23-1.93-6.91-2.9-11.02-2.9-6.63,0-12,2.31-16.12,6.93-4.11,4.62-6.17,10.79-6.17,18.51s2.06,13.89,6.17,18.51c4.11,4.62,9.48,6.93,16.12,6.93,4.11,0,7.78-.96,11.02-2.9,3.23-1.93,5.73-4.74,7.49-8.44h23.67c-2.52,9.57-7.51,17.1-14.98,22.6-7.47,5.5-16.45,8.25-26.94,8.25-8.56,0-16.22-1.91-22.98-5.73-6.76-3.82-12.02-9.13-15.8-15.93-3.78-6.8-5.67-14.56-5.67-23.29s1.89-16.51,5.67-23.36Z"/>
    <path class="cls-2" d="m766.56,205.85l-29.71-39.03v39.03h-21.53v-88.39h21.53v38.78l29.46-38.78h25.31l-34.25,43.31,35.51,45.08h-26.32Z"/>
    <path class="cls-2" d="m824.61,134.71v17.88h28.83v16.62h-28.83v19.39h32.61v17.25h-54.14v-88.39h54.14v17.25h-32.61Z"/>
    <path class="cls-2" d="m916.27,205.85l-18.38-33.37h-5.16v33.37h-21.53v-88.39h36.14c6.97,0,12.91,1.22,17.82,3.65,4.91,2.44,8.58,5.77,11.02,10.01,2.43,4.24,3.65,8.96,3.65,14.16,0,5.88-1.66,11.12-4.97,15.74-3.32,4.62-8.21,7.89-14.67,9.82l20.4,35h-24.3Zm-23.54-48.6h13.35c3.94,0,6.9-.96,8.88-2.9,1.97-1.93,2.96-4.66,2.96-8.18s-.99-6-2.96-7.93c-1.97-1.93-4.93-2.9-8.88-2.9h-13.35v21.91Z"/>
  </g>
  <g>
    <path class="cls-1" d="m7.43,36.46c-.43,0-.86-.12-1.24-.38C3.04,33.95.92,30.58.24,26.59c-.75-4.38.33-9.07,2.89-12.56.73-.98,2.12-1.2,3.11-.48.99.73,1.2,2.12.47,3.1-1.86,2.53-2.64,5.96-2.09,9.18.48,2.78,1.93,5.11,4.07,6.56,1.01.69,1.28,2.07.6,3.09-.43.63-1.13.97-1.84.97Z"/>
    <path class="cls-1" d="m157.11,36.46c.43,0,.86-.12,1.24-.38,3.16-2.14,5.27-5.51,5.96-9.49.75-4.38-.33-9.07-2.89-12.56-.73-.98-2.12-1.2-3.11-.48-.99.73-1.2,2.12-.47,3.1,1.86,2.53,2.64,5.96,2.09,9.18-.48,2.78-1.93,5.11-4.07,6.56-1.01.69-1.28,2.07-.6,3.09.43.63,1.13.97,1.84.97Z"/>
    <path class="cls-1" d="m152.93,230.28c-1.99,0-3.55-.07-4.6-.14-11.38-.76-22.8-3.99-33.01-9.36-21.94-11.53-37.5-31.2-42.69-53.98-2.68-11.77-3.11-19.82-3.04-33.41.11-22.74-.03-46.68-.43-71.15-.12-7.68,6-14,13.68-14.13,7.67-.1,14,6,14.13,13.68.4,24.66.54,48.79.43,71.73-.06,13.07.42,18.64,2.34,27.09,3.33,14.62,13.99,27.91,28.51,35.54,6.8,3.57,14.38,5.73,21.92,6.23,4.34.29,26.83.87,43.24-16.15,5.28-5.48,8.87-11.19,10.98-17.47.66-1.97,1.27-4.61,1.8-7.84,1.57-9.46,1.76-19.6.54-30.13-.88-7.63,4.59-14.52,12.22-15.4,7.63-.87,14.52,4.6,15.4,12.22,1.51,13.11,1.26,25.85-.74,37.87-.79,4.74-1.73,8.71-2.87,12.12-3.4,10.14-9.23,19.53-17.33,27.93-10.71,11.1-24.72,18.87-40.51,22.47-8.13,1.85-15.25,2.27-19.99,2.27Z"/>
    <path class="cls-1" d="m254.82,104.36h-61.43c-7.68,0-13.9-6.23-13.9-13.9V13.9c0-7.68,6.22-13.9,13.9-13.9h109.58c7.68,0,13.9,6.23,13.9,13.9s-6.22,13.9-13.9,13.9h-95.68v48.75h47.52c7.68,0,13.9,6.23,13.9,13.9s-6.22,13.9-13.9,13.9Z"/>
    <path class="cls-1" d="m140.61,38.7H23.93c-7.68,0-13.9-6.23-13.9-13.9s6.22-13.9,13.9-13.9h116.68c7.68,0,13.9,6.23,13.9,13.9s-6.22,13.9-13.9,13.9Z"/>
  </g>
</svg>