<?xml version="1.0" encoding="UTF-8"?>
<svg id="Capa_2" data-name="Capa 2" xmlns="http://www.w3.org/2000/svg" viewBox="0 0 318.7 366.47">
  <defs>
    <style>
      .cls-1 {
        fill: #021d30;
      }

      .cls-1, .cls-2, .cls-3, .cls-4 {
        stroke: #fff;
        stroke-miterlimit: 10;
      }

      .cls-2 {
        fill: red;
      }

      .cls-5 {
        fill: #fff;
      }

      .cls-5, .cls-6 {
        stroke-width: 0px;
      }

      .cls-3, .cls-6 {
        fill: lime;
      }

      .cls-4 {
        fill: #fdfeff;
      }
    </style>
  </defs>
  <g id="Layer_1" data-name="Layer 1">
    <rect class="cls-5" x="44.31" y="268.27" width="229.56" height="91.02"/>
    <ellipse class="cls-4" cx="159.1" cy="153.06" rx="149.1" ry="143.85"/>
    <path class="cls-3" d="m222.13,161.79c-2.92,30.6-26.44,55.16-56.68,58.68-31.67,3.68-61.54-15.18-71.91-45.16-9.25-26.72-.65-55.68,21.28-72.62,2.04-1.58,4.11-3.16,6.76-3.64,3.67-.66,6.65.54,8.75,3.58,2.39,3.45,2.31,6.92,0,10.06-2.8,3.79-7.08,5.93-10.21,9.43-15.41,17.2-15.92,44.47-.97,62.18,11.38,13.48,25.84,19.92,43.44,18.01,21.28-2.31,37.69-18.8,40.85-39.98,2.83-18.92-3.16-34.29-17.95-46.29-2.51-2.04-4.33-4.31-4.47-7.75-.26-6.74,6.01-11.11,12.07-8.19,4.97,2.4,8.88,6.21,12.44,10.31,12.72,14.65,18.81,31.5,16.59,51.39m-125.4-3.66c0,2.32.47,4.43,2.95,5.33,1.77.65,3.55.75,5.11-.61,1.69-1.46,2.57-3.12,1.73-5.46-.76-2.12-1.94-3.75-4.28-3.89-2.83-.16-4.55,1.43-5.5,4.63Z"/>
    <path class="cls-1" d="m114.42,53.36c4.46-1.74,8.52-3.75,12.92-4.86,4.46-1.13,8.47.6,9.57,4.14,1.17,3.75-.95,8.04-5.2,9.56-5.71,2.04-11.37,4.14-16.77,6.92-17.3,8.9-30.12,22.25-39.26,39.31-5.62,10.49-8.3,21.84-10.15,33.47-.93,5.84-3.89,8.25-8.73,7.36-3.63-.67-5.91-2.98-5.57-6.7.82-9.12,2.43-18.11,5.54-26.79,4.17-11.64,10.26-22.15,17.99-31.77,10.7-13.31,23.81-23.49,39.65-30.61Z"/>
    <path class="cls-1" d="m254.78,109.01c3.8,8.55,6.23,17.22,7.75,26.16.89,5.23-1.59,9.05-6.23,9.76-3.93.6-7.31-2.56-8.17-7.54-5.77-33.48-24.93-56.39-55.44-70.44-4.37-2.01-9.03-3.01-13.45-4.76-.96-.38-1.92-.77-2.81-1.28-3.32-1.91-4.62-5.74-3.16-9.38,1.41-3.53,4.2-4.26,7.61-3.53,11.87,2.51,22.73,7.46,32.96,13.85,18.38,11.47,31.62,27.45,40.93,47.18Z"/>
    <path class="cls-2" d="m176.05,174.94c-.73,4.28-3.02,2.48-4.71,1.33-4.16-2.82-8.31-5.7-12.19-8.89-2.73-2.24-4.79-1.88-7.45.08-3.74,2.75-7.77,5.09-11.71,7.55-.93.58-1.93,1.64-3.13.72-1.12-.86-.7-2.15-.39-3.24,1.31-4.58,2.43-9.24,4.13-13.67,1.44-3.74.55-5.91-2.8-7.95-5.46-3.32-10.67-7.05-16.33-10.84,2.59-2.29,5.15-1.46,7.39-1.56,4.63-.22,9.3-.36,13.9.08,3.81.37,5.25-1.67,5.92-4.61,1.26-5.55,3.41-10.8,5.03-16.23.4-1.34.4-3.2,2.1-3.33,2.08-.16,2.13,2.01,2.58,3.34,1.95,5.74,3.81,11.51,5.53,17.32.73,2.46,1.94,3.64,4.64,3.58,5.92-.12,11.85.02,17.78.01,1.28,0,2.59-.29,3.64.8.21,1.83-1.35,2.34-2.44,3.13-4.72,3.39-9.43,6.79-14.24,10.04-2.19,1.48-3.11,2.9-2.13,5.71,1.86,5.36,3.25,10.88,4.9,16.63Z"/>
    <path class="cls-6" d="m149.35,76.43c.73-4.96,2.74-6.98,6.5-6.81,3.72.17,6.02,2.65,6.23,6.91.21,4.48.38,8.96.41,13.45.03,4.39-2.44,7.37-6.05,7.58-4.06.24-6.61-2.17-6.89-7-.27-4.59-.17-9.21-.2-14.13Z"/>
    <g>
      <path class="cls-1" d="m297.06,244.01c-7.68,13.59-17.42,25.22-28.09,35.86.86,2.25,2.63,2.69,4,3.54,17.59,11.01,25.35,31.57,19.65,51.45-5.23,18.24-21.41,30.51-40.62,29.84-18.53-.65-37.1-.07-55.65-.02-19.97.05-39.93,0-59.9.22-19.58.23-39.16,1.03-58.74,1.07-17.46.04-34.21-3.1-46.72-16.67-14.85-16.09-18.49-34.73-11.25-55.56,3.23-9.28,8.58-16.99,15.72-23.52,2.42-2.21.83-3.5-.4-5.15-11.76-15.61-20.48-32.82-26.56-51.35C2.17,194.42-.13,174.56.64,154.29c.69-18.1,4.38-35.62,11.06-52.35,13-32.52,33.96-58.88,63.61-77.75C97.35,10.18,121.61,2.62,147.81.85c18.69-1.27,36.94.99,54.69,6.08,23.2,6.65,43.91,18.29,61.92,34.55,25.31,22.85,41.46,51.12,49.52,84.07,3.47,14.2,4.68,28.7,4.13,43.33-.51,13.85-2.67,27.39-6.66,40.7-3.57,11.91-8.52,23.18-14.36,34.44m-1.69-61.68c1.44-7.74,2.71-18.56,1.89-31.4-.29-4.48-1.42-24.09-12.2-46.93-19.71-41.75-51.71-68.6-96.77-79.67-17.17-4.22-34.48-4.65-51.78-1.87-24.19,3.89-45.84,13.75-64.66,29.57-26.97,22.68-42.98,51.83-49.19,86.17-4.49,24.84-.95,49.34,7.16,73.08,0,0,10.88,29.69,30.58,49.3,3.18,3.16,7.02,6.51,7.02,6.51,3.43,2.99,5.14,4.49,7.37,5.95,3.82,2.52,4.29,1.99,9.07,5.1,2.3,1.5,3.11,2.22,5.39,3.4,3.14,1.63,3.04,1.01,5.37,2.41,1.4.85,2.45,1.67,3.79,1.45.62-.1,1.24-.39,1.83-.91,1.73-1.52.81-3.29-.05-4.94-.3-.56-.59-1.17-.1-2.07,1-.76,2.44-.84,3.82-1.07,4.54-.75,8.92-4.47,9.66-8.23.81-4.13-1.01-7.47-5.78-10.35-8.63-5.2-17.05-10.67-24.32-17.76-12.18-11.88-21.78-25.43-27.83-41.43-1.88-4.96.04-8.46,3.45-11.71.71-.68,1.36-1,2.39-.71,4.18,1.17,7.18,3.2,8.81,7.7,7.52,20.67,21.08,36.39,39.88,47.73,6.98,4.21,14.67,6.9,21.91,10.53,4.41,2.21,6.07,5.15,5.15,9.74-.78,3.88.12,7.71-.43,11.54-.33,2.3.76,3.21,3.16,3.09,3.85-.18,7.72-.06,11.58-.08,7.6-.04,15.2-.1,22.8-.11,1.77,0,3.2-.49,3.18-2.5-.03-3.08.51-6.21-.24-9.25-2.12-8.6-.95-10.93,7.62-13.6,29.61-9.21,50.37-27.89,61.52-57.02,1.73-4.52,3.12-9.4,8.69-11.06.94-.28,1.54-1.66,2.35-2.48,1.96-1.96,4.13-2.93,7.15-1.36-2.06,2.77-2.93,5.96-1.41,8.74,2.41,4.41.17,7.68-1.86,11.01-.94,1.55-1.84,3.08-2.57,4.73-9.54,21.49-24.12,38.61-44.15,51.02-2.77,1.72-2.87,3.68-.26,6.16,2.64,2.5,5.99,2.75,9.41,2.77,3.73.01,7.67.43,9.24,4.3,1.79,4.44,5.05,4.62,8.78,4.18,3.45-.4,5.68-2.79,6.39-3.46,26.16-24.84,35-43.79,35-43.79,4.37-9.38,9.81-23.76,12.2-42.43Zm-49.31,116.15c3.73-.05,7.47-.07,11.2-.17,3.69-.1,4.52-1.5,4.58-7.04.04-3.63-2.5-3.32-4.82-3.32-8.76-.02-17.53.16-26.28-.08-3.25-.09-4.38,1.15-4.68,4.11-.73,7.06-1.99,14.08-2.31,21.16-.27,5.96-1.78,11.74-1.87,17.7-.04,2.46.56,3.38,3.24,3.33,8.5-.14,17.01,0,25.51.08,8.1.07,8.08.09,7.81-7.96-.08-2.34-.82-3.44-3.49-3.34-5.92.22-11.85.08-17.78.07-2.94,0-4.29-2.31-2.94-4.88.86-1.63,2.39-1.37,3.74-1.39,5.79-.08,11.59,0,17.39-.1,3.24-.05,4.06-1.68,4.01-6.49-.03-2.88-1.19-3.76-4.03-3.62-5.27.26-10.56.12-15.85.21-4.5.08-5.07-.63-4.23-5.07.43-2.29,1.52-3.41,3.93-3.25,2.06.14,4.13.07,6.87.05m-53.31-6.68c-1.08-3.35-4.02-4.7-8.18-3.59-3.81,1.02-1.75,3.71-1.31,5.66,2.7,12.05,5.64,24.04,8.27,36.1.59,2.72,1.23,4.86,4.44,4.57,3.28-.3,7.02.67,8.6-3.98,2.72-8.03,5.97-15.89,8.75-23.9,2.08-6,5.14-11.71,6.07-18.02-1.42-.9-2.75-.54-4.01-.63-3.48-.26-6.08.48-7.27,4.48-1.54,5.16-3.71,10.13-5.69,15.15-.86,2.18-1.43,4.57-3.94,6.83-1.97-7.79-3.78-14.94-5.72-22.66m-74.37,30.27c-.33,2.17-.67,4.34-1,6.51-.76,5.11-.27,5.66,4.78,5.62,7.33-.05,14.68-.33,22,0,8.41.38,8.39.62,8.35-7.7,0-.26,0-.52-.01-.77-.11-2.29-.91-3.42-3.6-3.24-4.87.33-9.78.25-14.67.22-4.56-.03-4.9-.74-4.64-5.25.49-8.52,2.79-16.82,2.88-25.37.01-1.11.39-2.33-.79-3.2-2.82-2.11-8.85.2-9.36,3.69-1.38,9.57-3.34,19.07-3.94,29.51m-57.5-27.11c-5.06.76-10.52,7.95-10.87,14.34-.7,13.02,8.42,25.16,22.59,25.05,8.97-.07,15.41-4.67,19.45-12.49,3.98-7.69,2.97-16.99-2.43-22.83-1.84-1.99-3.87-5.58-7.25-2.83-3.26,2.65-.26,4.99,1.35,7.21,3.7,5.11,3.78,11.91.22,16.99-3.61,5.15-9.4,7.09-15.71,5.25-10.09-2.94-13.55-15.1-6.62-23.8,2-2.52,2.95-4.57-.72-6.89m114.72-1.57q.19-4.96-4.61-4.79c-.9.03-1.8.03-2.7.04-1.95.01-3.06.8-3.33,2.9-1.5,11.64-3.33,23.25-4.56,34.92-.85,8.06-.51,8.01,7.73,7.74,2.15-.07,3.03-.8,3.26-2.83,1.38-12.43,2.8-24.86,4.21-37.98m-102.28,17.7c1.63-.7,2.27-2.06,2.3-3.7.15-6.53.33-13.07.35-19.61,0-2.55-1.43-4.12-4.12-4.06-2.66.06-3.54,1.98-3.57,4.18-.07,6.41-.08,12.82.13,19.23.08,2.5,1.27,4.5,4.91,3.96m90.22,29.75c-1.29-.12-2.96-.42-3.36,1.08-.97,3.64-.91,7.33.03,11.05,2.53-.67,1.06-3.53,3.03-3.95,2.11.32,1.42,4.16,4.38,3.41.22-1.8-1.13-3.17-.29-5.01,1.9-4.17,1.23-5.27-3.79-6.58m36.86.02c-1.43.3-3.59-.54-4.08,1.29-.88,3.33-.72,6.8-.57,10.88.95-.83,1.3-1.02,1.47-1.31.55-.92.26-2.55,1.82-2.61,1.61-.06,1.93,1.42,2.44,2.58.41.93.96,1.53,2.08.77.47-1.7-1.56-3.24-.2-5.09,2.36-3.22.81-5.18-2.95-6.49m47.89,8.8c.06,1.02-.85,2.27.77,3.04,1.8-1.32.26-4.1,2.13-5.33,2.66,1,2.34,5.1,5.66,5.25,1.42-5.3,1.31-8.96-.32-11.22-1.87,1.11-.15,3.82-2.28,5.04-.72-1.14-1.39-2.22-2.09-3.28-.57-.87-1.2-1.84-2.41-1.59-1.28.27-1.3,1.5-1.36,2.49-.1,1.66-.04,3.33-.11,5.61m-91.45-1.06c-.06-1.54.1-3.13-.24-4.6-.65-2.76-2.86-3.77-5.34-3.17-3.45.83-3.81,3.88-3.76,6.8.04,2.55.6,5.17,3.64,5.6,2.87.4,5-.93,5.71-4.62m17.56,1.7c-3.27-3.22,2.42-1.81,1.72-4.04-.35-.77-2.5-.19-2.43-2.07.79-2.36,4.05-.04,4.96-2.39-5.56-2.93-7.85-1.63-7.82,4.34,0,.9-.14,1.79-.16,2.69-.04,1.57-1.01,3.91,1.26,4.21,2.16.29,5.02,1.52,6.78-1.33-1.14-1.35-2.58-.85-4.3-1.41m58.61,1.82c.47-.99.13-2.39,1.5-2.92,2.28.09,1.96,4.21,5.43,3.07-2.06-3.54-5.73-7.14-.03-10.73-3.6-1.21-3.57,3.09-5.8,2.95-1.62-.76.07-3.19-2.72-3.37-.51,3.4-1.27,6.8-.87,10.33.14,1.22.89,1.85,2.49.68m34.28-6.03c-2.19.93.72,2.54-.48,3.6-2.85.07-3.82-.56-3.87-2.72-.13-5.22,4.03-3.02,6.66-3.4-.17-.7-.16-1.12-.36-1.4-1.62-2.31-3.69-2.06-5.77-.82-2.76,1.63-3.61,5.32-2.1,8.57,1.06,2.27,2.76,3.39,5.29,2.69,2.11-.58,3.1-2.13,3.36-4.25.22-1.76-.75-2.29-2.74-2.26m-141.14,6.94c1.6.77,3.23.79,4.83.05,1.34-.62,2.48-1.54,2.55-3.1.08-1.59-.99-2.54-2.35-3.19-1.38-.65-4.12-.37-3.48-2.63.76-2.68,3.01-.28,4.58-.48.2-.03.37-.3.72-.6-.48-2.3-2.38-2.23-4.11-2.26-1.7-.03-2.97.84-3.56,2.45-1.73,4.73,3.61,4.17,5.24,6.25-1.17,1.86-2.36,1.03-3.6.85-2.09-.29-2.68.57-.82,2.65m12.74-3.52c-1.24-4.67-.44-5.64,4.16-5.01.73.1,1.27-.16,1.63-.74.41-.65.14-1.29-.33-1.75-1.05-1.05-2.32-1.69-3.84-1.37-3.32.69-4.6,3.03-4.8,6.16-.19,2.97.7,5.42,3.67,6.55,2.66,1.01,4.89-.68,4.8-3.5-1.61-.75-3.2,1.24-5.29-.34m68.33,3.28c1.7-.25,1.84-2.67,4.01-2.6,1.86.06,2.38,2.37,4.48,2.06-.08-3.31-1.21-6.29-2.33-9.23-.6-1.57-2.35-2.27-3.29-.7-1.89,3.15-3.77,6.47-2.87,10.47m17.73.16c1.47-.55,2.9-1.13,2.3-3.33-2.05-.71-4.67,2.38-6.18-.85-.65-1.39-.19-2.74.5-4.04,1.6-3.01,3.75-.21,5.79-.37.14-3.5-1.93-4.02-4.44-3.65-3.08.45-4.63,3.14-4.44,7.03.18,3.84,2.14,5.59,6.48,5.21m-35.49,0c1.13-.3,1.16-1.16,1.16-2.12,0-3.31-.67-6.86,3.58-8.73-3.76-1.49-7.17-1.51-9.35-.27,2.89,2.92,2.87,2.92,3.23,8.24.07.97-.15,2.11,1.38,2.88m55.85-7.71c-.02-1.55.51-3.35-2.29-4.17-.63,4.04-1,7.74.11,12.01,2.29-2.35,1.5-4.96,2.18-7.83Z"/>
      <path class="cls-1" d="m200.83,347.72c-1.42.42-2.18-.1-2.31-1.17-.13-1.04-.28-2.25.8-2.95,1.15-.74,1.89-.04,2.2.96.32,1.06.17,2.12-.69,3.16Z"/>
      <path class="cls-1" d="m211.45,344.25c-.93-.04-2.52,2.85-1.42,4.11.6.68,1.93.84,2.55.28,1.12-1.01-.15-4.36-1.13-4.39Z"/>
      <path class="cls-1" d="m164.67,347.72c-1.42.42-2.18-.1-2.31-1.17-.13-1.04-.28-2.25.8-2.95,1.15-.74,1.89-.04,2.2.96.32,1.06.17,2.12-.69,3.16Z"/>
      <path class="cls-1" d="m152.97,350.09c-2,.68-3.06-.11-3.23-1.76-.16-1.6-.34-3.45,1.19-4.55,1.63-1.17,2.66-.1,3.07,1.43.43,1.62.2,3.26-1.03,4.88Z"/>
    </g>
  </g>
</svg>