<?xml version="1.0" encoding="UTF-8"?>
<svg id="Capa_1" data-name="Capa 1" xmlns="http://www.w3.org/2000/svg" viewBox="0 0 1081 1081">
  <defs>
    <style>
      .cls-1 {
        fill: #fff;
      }

      .cls-2 {
        fill: #16f98a;
      }
    </style>
  </defs>
  <g>
    <path class="cls-1" d="m178.58,680.13v35.95c0,3.6.88,6.36,2.65,8.3,1.77,1.94,4.37,2.91,7.79,2.91s6.05-.97,7.87-2.91c1.83-1.94,2.74-4.71,2.74-8.3v-35.95h14.64v35.86c0,5.36-1.14,9.9-3.42,13.61-2.28,3.71-5.35,6.5-9.2,8.39-3.85,1.88-8.15,2.83-12.88,2.83s-8.97-.93-12.71-2.78c-3.74-1.85-6.69-4.65-8.86-8.39-2.17-3.74-3.25-8.29-3.25-13.65v-35.86h14.64Z"/>
    <path class="cls-1" d="m239.17,728.92h19.17v11.3h-33.81v-60.09h14.64v48.79Z"/>
    <path class="cls-1" d="m308.59,680.13v11.73h-15.92v48.36h-14.64v-48.36h-15.92v-11.73h46.48Z"/>
    <path class="cls-1" d="m330.59,680.13v60.09h-14.64v-60.09h14.64Z"/>
    <path class="cls-1" d="m409.24,680.13v60.09h-14.64v-36.03l-13.44,36.03h-11.81l-13.52-36.12v36.12h-14.64v-60.09h17.29l16.86,41.6,16.69-41.6h17.2Z"/>
    <path class="cls-1" d="m457.18,729.6h-22.43l-3.6,10.61h-15.32l21.74-60.09h16.95l21.74,60.09h-15.49l-3.59-10.61Zm-3.77-11.3l-7.45-22-7.36,22h14.81Z"/>
    <path class="cls-1" d="m526.08,680.13v11.73h-15.92v48.36h-14.64v-48.36h-15.92v-11.73h46.48Z"/>
    <path class="cls-1" d="m548.08,691.86v12.15h19.6v11.3h-19.6v13.18h22.17v11.73h-36.81v-60.09h36.81v11.73h-22.17Z"/>
    <path class="cls-1" d="m637.01,680.13v11.73h-24.48v12.67h18.32v11.38h-18.32v24.31h-14.64v-60.09h39.12Z"/>
    <path class="cls-1" d="m675.35,740.22l-12.5-22.68h-3.51v22.68h-14.64v-60.09h24.57c4.74,0,8.77.83,12.11,2.48,3.34,1.66,5.83,3.92,7.49,6.8,1.65,2.88,2.48,6.09,2.48,9.63,0,3.99-1.13,7.56-3.38,10.7-2.25,3.14-5.58,5.36-9.97,6.68l13.87,23.79h-16.52Zm-16.01-33.04h9.07c2.68,0,4.69-.66,6.03-1.97,1.34-1.31,2.01-3.17,2.01-5.56s-.67-4.08-2.01-5.39c-1.34-1.31-3.35-1.97-6.03-1.97h-9.07v14.89Z"/>
    <path class="cls-1" d="m715.15,680.13v60.09h-14.64v-60.09h14.64Z"/>
    <path class="cls-1" d="m735.69,738.68c-3.48-1.43-6.26-3.54-8.35-6.33-2.08-2.79-3.18-6.16-3.3-10.1h15.58c.23,2.23,1,3.92,2.31,5.09,1.31,1.17,3.02,1.75,5.14,1.75s3.88-.5,5.14-1.5c1.25-1,1.88-2.38,1.88-4.15,0-1.48-.5-2.71-1.5-3.68-1-.97-2.23-1.77-3.68-2.4-1.46-.63-3.52-1.34-6.21-2.14-3.88-1.2-7.05-2.4-9.5-3.59-2.45-1.2-4.57-2.97-6.33-5.31-1.77-2.34-2.65-5.39-2.65-9.16,0-5.59,2.02-9.97,6.08-13.14,4.05-3.17,9.33-4.75,15.83-4.75s11.95,1.58,16.01,4.75c4.05,3.17,6.22,7.57,6.51,13.22h-15.83c-.11-1.94-.83-3.47-2.14-4.58-1.31-1.11-3-1.67-5.05-1.67-1.77,0-3.2.47-4.28,1.41-1.08.94-1.63,2.3-1.63,4.07,0,1.94.91,3.45,2.74,4.54,1.83,1.08,4.68,2.25,8.56,3.51,3.88,1.31,7.03,2.57,9.46,3.77,2.42,1.2,4.52,2.94,6.29,5.22,1.77,2.28,2.65,5.22,2.65,8.82s-.87,6.53-2.61,9.33c-1.74,2.8-4.27,5.02-7.58,6.68-3.31,1.66-7.22,2.48-11.73,2.48s-8.33-.71-11.81-2.14Z"/>
    <path class="cls-1" d="m823.17,714.58c2.11,2.71,3.17,5.81,3.17,9.29,0,5.02-1.75,9-5.26,11.94-3.51,2.94-8.4,4.41-14.68,4.41h-27.99v-60.09h27.05c6.11,0,10.88,1.4,14.34,4.19,3.45,2.8,5.18,6.59,5.18,11.38,0,3.54-.93,6.48-2.78,8.82-1.85,2.34-4.32,3.97-7.4,4.88,3.48.74,6.28,2.47,8.39,5.18Zm-30.13-10.14h9.59c2.4,0,4.24-.53,5.52-1.58,1.28-1.06,1.93-2.61,1.93-4.67s-.64-3.62-1.93-4.71c-1.28-1.08-3.12-1.63-5.52-1.63h-9.59v12.58Zm16.48,22.3c1.34-1.11,2.01-2.72,2.01-4.84s-.7-3.77-2.1-4.96c-1.4-1.2-3.33-1.8-5.78-1.8h-10.61v13.27h10.78c2.45,0,4.35-.56,5.69-1.67Z"/>
    <path class="cls-1" d="m849.44,691.86v12.15h19.6v11.3h-19.6v13.18h22.17v11.73h-36.81v-60.09h36.81v11.73h-22.17Z"/>
    <path class="cls-1" d="m895.75,691.86v12.15h19.6v11.3h-19.6v13.18h22.17v11.73h-36.81v-60.09h36.81v11.73h-22.17Z"/>
    <path class="cls-2" d="m390.8,782.84v11.73h-15.92v48.36h-14.64v-48.36h-15.92v-11.73h46.48Z"/>
    <path class="cls-2" d="m428.8,842.93l-12.5-22.68h-3.51v22.68h-14.64v-60.09h24.57c4.74,0,8.77.83,12.11,2.48,3.34,1.66,5.83,3.92,7.49,6.8,1.65,2.88,2.48,6.09,2.48,9.63,0,3.99-1.13,7.56-3.38,10.7-2.25,3.14-5.58,5.36-9.97,6.68l13.87,23.79h-16.52Zm-16.01-33.04h9.07c2.68,0,4.69-.66,6.03-1.97,1.34-1.31,2.01-3.17,2.01-5.56s-.67-4.08-2.01-5.39c-1.34-1.31-3.35-1.97-6.03-1.97h-9.07v14.89Z"/>
    <path class="cls-2" d="m491.37,832.32h-22.43l-3.6,10.61h-15.32l21.74-60.09h16.95l21.74,60.09h-15.49l-3.59-10.61Zm-3.77-11.3l-7.45-22-7.36,22h14.81Z"/>
    <path class="cls-2" d="m518.42,796.92c2.57-4.65,6.15-8.27,10.74-10.87,4.59-2.6,9.8-3.89,15.62-3.89,7.13,0,13.24,1.88,18.32,5.65,5.08,3.77,8.47,8.9,10.19,15.41h-16.09c-1.2-2.51-2.9-4.42-5.09-5.74-2.2-1.31-4.69-1.97-7.49-1.97-4.51,0-8.16,1.57-10.96,4.71-2.8,3.14-4.19,7.33-4.19,12.58s1.4,9.44,4.19,12.58c2.8,3.14,6.45,4.71,10.96,4.71,2.8,0,5.29-.66,7.49-1.97,2.2-1.31,3.89-3.22,5.09-5.73h16.09c-1.71,6.5-5.11,11.63-10.19,15.36-5.08,3.74-11.18,5.61-18.32,5.61-5.82,0-11.03-1.3-15.62-3.89-4.59-2.6-8.17-6.21-10.74-10.83s-3.85-9.9-3.85-15.83,1.28-11.23,3.85-15.88Z"/>
    <path class="cls-2" d="m617.11,842.93l-20.2-26.53v26.53h-14.64v-60.09h14.64v26.36l20.03-26.36h17.2l-23.28,29.44,24.14,30.64h-17.89Z"/>
    <path class="cls-2" d="m656.56,794.57v12.15h19.6v11.3h-19.6v13.18h22.17v11.73h-36.81v-60.09h36.81v11.73h-22.17Z"/>
    <path class="cls-2" d="m718.87,842.93l-12.5-22.68h-3.51v22.68h-14.64v-60.09h24.57c4.74,0,8.77.83,12.11,2.48,3.34,1.66,5.83,3.92,7.49,6.8,1.65,2.88,2.48,6.09,2.48,9.63,0,3.99-1.13,7.56-3.38,10.7-2.25,3.14-5.58,5.36-9.97,6.68l13.87,23.79h-16.52Zm-16.01-33.04h9.07c2.68,0,4.69-.66,6.03-1.97,1.34-1.31,2.01-3.17,2.01-5.56s-.67-4.08-2.01-5.39c-1.34-1.31-3.35-1.97-6.03-1.97h-9.07v14.89Z"/>
  </g>
  <g>
    <path class="cls-1" d="m276.71,251.71c-.77,0-1.55-.22-2.23-.68-5.67-3.84-9.47-9.9-10.7-17.05-1.36-7.88.59-16.3,5.19-22.56,1.31-1.77,3.8-2.16,5.58-.85,1.77,1.31,2.15,3.81.85,5.58-3.35,4.55-4.75,10.71-3.76,16.49.86,4.99,3.46,9.18,7.31,11.79,1.82,1.24,2.31,3.72,1.07,5.55-.77,1.14-2.03,1.75-3.31,1.75Z"/>
    <path class="cls-1" d="m545.62,251.71c.77,0,1.55-.22,2.23-.68,5.67-3.84,9.47-9.9,10.7-17.05,1.36-7.88-.59-16.3-5.19-22.56-1.31-1.77-3.8-2.16-5.58-.85-1.77,1.31-2.15,3.81-.85,5.58,3.35,4.55,4.75,10.71,3.76,16.49-.86,4.99-3.46,9.18-7.31,11.79-1.82,1.24-2.31,3.72-1.07,5.55.77,1.14,2.03,1.75,3.31,1.75Z"/>
    <path class="cls-1" d="m538.12,599.94c-3.57,0-6.38-.13-8.27-.26-20.45-1.36-40.96-7.17-59.31-16.81-39.42-20.71-67.38-56.06-76.7-96.98-4.82-21.15-5.58-35.61-5.46-60.02.2-40.86-.06-83.87-.76-127.83-.22-13.79,10.78-25.16,24.57-25.38,13.78-.18,25.16,10.78,25.38,24.57.71,44.31.97,87.66.77,128.87-.11,23.48.75,33.49,4.21,48.68,5.99,26.28,25.14,50.15,51.22,63.85,12.22,6.42,25.84,10.29,39.39,11.19,7.8.52,48.2,1.56,77.69-29.02,9.49-9.84,15.94-20.1,19.72-31.38,1.19-3.54,2.28-8.27,3.24-14.08,2.83-17,3.16-35.21.98-54.14-1.58-13.71,8.26-26.09,21.96-27.67,13.7-1.57,26.09,8.26,27.67,21.96,2.71,23.56,2.26,46.45-1.33,68.04-1.42,8.52-3.1,15.64-5.16,21.77-6.11,18.21-16.58,35.1-31.13,50.18-19.24,19.95-44.41,33.91-72.78,40.37-14.6,3.33-27.4,4.07-35.92,4.07Z"/>
    <path class="cls-1" d="m721.18,373.7h-110.36c-13.8,0-24.98-11.18-24.98-24.98v-137.54c0-13.8,11.18-24.98,24.98-24.98h196.88c13.8,0,24.98,11.18,24.98,24.98s-11.18,24.98-24.98,24.98h-171.9v87.58h85.38c13.8,0,24.98,11.18,24.98,24.98s-11.18,24.98-24.98,24.98Z"/>
    <path class="cls-1" d="m515.98,255.73h-209.64c-13.8,0-24.98-11.18-24.98-24.98s11.18-24.98,24.98-24.98h209.64c13.8,0,24.98,11.18,24.98,24.98s-11.18,24.98-24.98,24.98Z"/>
  </g>
</svg>