<svg id="Capa_1" data-name="Capa 1" xmlns="http://www.w3.org/2000/svg" viewBox="0 0 2000 2000"><defs><style>.cls-1{fill:#fff;}.cls-2{fill:#4FD1C5;}.cls-3{fill:none;}.cls-4{fill:#a7aaff;}</style></defs><title>LETRAS BLANCAS</title><path class="cls-1" d="M621.1,370l-.83,5L653,414.44l-73.8,418.49H684l-.84,5L715,877.38l-27.67,157.67H384.6l-31.87-39.42h-5L457.57,370ZM395.51,856.41,375.38,972.15H636.2l20.13-115.74ZM398,842.16H514.59l78.84-448.68H476.86Z"/><path class="cls-1" d="M829.08,370h162.7l-.84,5,32.71,39.41L913.78,1035.05H756.12l-31.87-39.42h-5ZM746.89,972.15H862.62L964.1,393.48H848.37Z"/><path class="cls-1" d="M1214.85,392.64V396l31.87,39.42q-4.2,26.85-8.8,52t-9.65,47.8q-4.2,20.13-7.13,38.58t-6.29,36.06q-7.55,40.26-11.32,75.06a522.14,522.14,0,0,0-2.93,69.19,549.55,549.55,0,0,0,29.77-78,661.09,661.09,0,0,0,18-79.67L1288.65,370h162.7l-.84,5,32.71,39.41-45.29,253.28q-16.79,81.35-54.09,164.37T1281.11,996.47l1.67,1.68L1271,1009.89l-9.22,10.9-.84-.84-15.1,15.1h-136.7l-31.87-39.42H1074q-55.35-90.57-65.42-191.21t8.39-208L1057.19,370H1196.4Zm-138.37.84-36.07,202.95a793,793,0,0,0-11.74,100.64,623.84,623.84,0,0,0,2.52,97.28,456.7,456.7,0,0,0,19.29,92.25,393.16,393.16,0,0,0,39.41,85.55h116.58l15.09-16.78q-30.19-52-47-96t-23.9-84.71a395.35,395.35,0,0,1-5.87-80.93,791.65,791.65,0,0,1,7.54-85.12q6.3-44.85,16.78-97.28t22.22-117.83Zm195.4,202.95a717.25,717.25,0,0,1-31.87,122q-21,58.31-58.7,116.16,1.67,8.39,8.38,23.06t14.68,31q8,16.35,15.93,31t13,23.06q60.39-71.26,96-152.21A791.72,791.72,0,0,0,1381.74,625h.84l41.1-231.47H1307.94Z"/><path class="cls-1" d="M1517.6,370h328.76l-.84,5,32.71,39.41-27.68,157.67h-166l-5.87,29.35h126.63l-.84,5,32.71,39.42-27.67,157.67H1643.4l-5,29.35H1765l-.84,5L1796,877.38l-27.68,157.67H1444.64l-31.87-39.42h-5ZM1630,523.47H1514.25l-78.83,448.68H1717.2l20.13-115.74h-166l20.13-115.73h166L1777.59,625H1611.53Zm-113.21-14.26h281.78l20.13-115.73H1536.89Z"/><path class="cls-2" d="M435.12,1073.19a39.5,39.5,0,0,1,16.85,3.5,35.14,35.14,0,0,1,19.71,23.85,42.48,42.48,0,0,1,.52,17.51l-1.56,9.07H434.86q.51-2.85,1.16-6.09a24.54,24.54,0,0,0,.52-6,6.43,6.43,0,0,0-1.81-4.4c-1.13-1.13-3.07-1.69-5.84-1.69h-13q-8.82,0-10.37,9.08l-3.11,17.89q-1.56,9.07,7,9.07h13a39.54,39.54,0,0,1,16.86,3.5,35.36,35.36,0,0,1,19.7,23.73,41.59,41.59,0,0,1,.52,17.37l-3.11,17.89a47.9,47.9,0,0,1-6.61,17.5,60.51,60.51,0,0,1-12.19,14.27,57,57,0,0,1-15.82,9.59,47.82,47.82,0,0,1-18,3.5h-13a39.58,39.58,0,0,1-16.86-3.5,35.15,35.15,0,0,1-19.7-23.86,42.08,42.08,0,0,1-.52-17.5l3.11-17.89h36l-3.11,18.07q-1.56,8.89,7.26,8.9h13q9.06,0,10.63-8.88l3.11-18q1.56-8.88-7.52-8.88h-13a39.35,39.35,0,0,1-16.85-3.51,34.38,34.38,0,0,1-12.45-9.59,36.78,36.78,0,0,1-7-14.26,42.43,42.43,0,0,1-.52-17.5l3.12-17.89a47.84,47.84,0,0,1,6.61-17.51,60.82,60.82,0,0,1,12.18-14.26,57,57,0,0,1,15.82-9.59,47.85,47.85,0,0,1,18-3.5Z"/><path class="cls-2" d="M539.87,1073.45a39.43,39.43,0,0,1,16.86,3.5,35.32,35.32,0,0,1,19.7,23.72,41.63,41.63,0,0,1,.52,17.38l-3.63,20.74-35.78-.26,2.07-11.41q.52-2.85,1.17-6.09a24.39,24.39,0,0,0,.52-5.84,6.29,6.29,0,0,0-1.82-4.27c-1.12-1.13-3.07-1.69-5.83-1.69h-7q-8.82,0-10.38,8.82l-15.81,89.45q-1.56,9.09,7.26,9.08h7a10.26,10.26,0,0,0,6.35-1.69,10.65,10.65,0,0,0,3.37-4.41,21.48,21.48,0,0,0,1.56-6q.39-3.24.91-6.09l3.11-17.38,35.78-.25-4.67,26.7a47.72,47.72,0,0,1-6.61,17.5,60.28,60.28,0,0,1-12.19,14.27,56.84,56.84,0,0,1-15.81,9.59,47.89,47.89,0,0,1-18,3.5h-7a39.51,39.51,0,0,1-16.86-3.5,34.34,34.34,0,0,1-12.44-9.59,36.77,36.77,0,0,1-7-14.27,42.26,42.26,0,0,1-.51-17.5l15.81-89.45a48,48,0,0,1,6.49-17.38,59.34,59.34,0,0,1,12-14.13,56.9,56.9,0,0,1,15.82-9.59,47.66,47.66,0,0,1,18-3.5Z"/><path class="cls-2" d="M651.37,1073.45a38.51,38.51,0,0,1,16.72,3.5,35.41,35.41,0,0,1,19.58,23.85,42.48,42.48,0,0,1,.52,17.51l-15.82,89.45a48.13,48.13,0,0,1-6.48,17.37,59.27,59.27,0,0,1-12.06,14.14,57,57,0,0,1-15.82,9.59,47.82,47.82,0,0,1-18,3.5H607.81a39.51,39.51,0,0,1-16.86-3.5,35.3,35.3,0,0,1-19.7-23.73,41.42,41.42,0,0,1-.52-17.37l15.81-89.45A49.27,49.27,0,0,1,593,1100.8a58.26,58.26,0,0,1,12.05-14.26A56.44,56.44,0,0,1,621,1077a48.62,48.62,0,0,1,18.15-3.5Zm1.29,44.86q1.56-9.07-7.52-9.08H633q-9.09,0-10.63,9.08l-15.82,89.45q-1.56,8.82,7.52,8.82h12.19q9.06,0,10.63-8.82Z"/><path class="cls-2" d="M760.79,1073.45a39.38,39.38,0,0,1,16.85,3.5,34.46,34.46,0,0,1,12.45,9.59,37.06,37.06,0,0,1,7,14.13,41.8,41.8,0,0,1,.52,17.38l-4.93,27a49.44,49.44,0,0,1-6.48,17.51,58.34,58.34,0,0,1-12.06,14.26,57,57,0,0,1-15.82,9.59,47.85,47.85,0,0,1-18,3.5H719.82l-10.89,62.49H673.14l17.38-98.27h56.26q8.82,0,10.12-8.87l4.92-27.12q1.56-8.86-7.26-8.87H734.08l-7,40.19H691.29l13.23-76Zm-35.53,120.83h17.89a49.27,49.27,0,0,0,17.89-3.63l13,61.71H734.86Z"/><path class="cls-2" d="M846.09,1113.64l-5.7,31.37h51.34l-6.23,35.79H834.16l-6.22,35.78h51.34l-6.22,35.78H785.94l24.37-138.72Zm-35-4.41,6.22-35.78h87.12l-6.22,35.78Z"/><path class="cls-2" d="M979.62,1073.71h94.65l-6.23,35.78H973.4Zm-2.33,178.65,24.37-138.46h36.05l-24.38,138.46Z"/><path class="cls-2" d="M1138.31,1073.45a39.35,39.35,0,0,1,16.85,3.5,34.46,34.46,0,0,1,12.45,9.59,37.06,37.06,0,0,1,7,14.13,41.8,41.8,0,0,1,.52,17.38l-4.93,27a49.44,49.44,0,0,1-6.48,17.51,58.34,58.34,0,0,1-12.06,14.26,57,57,0,0,1-15.82,9.59,47.82,47.82,0,0,1-18,3.5h-20.48l-10.89,62.49h-35.78l17.37-98.27h56.27q8.81,0,10.11-8.87l4.92-27.12q1.56-8.86-7.26-8.87H1111.6l-7,40.19h-35.78l13.22-76Zm-35.53,120.83h17.9a49.36,49.36,0,0,0,17.89-3.63l13,61.71h-39.15Z"/><path class="cls-2" d="M1252.13,1073.45A39.4,39.4,0,0,1,1269,1077a35.16,35.16,0,0,1,19.7,23.85,42.14,42.14,0,0,1,.52,17.51l-23.59,134h-36l7-41h-30.86l-7,41h-36l13.48-76.75h66.9l9.85-56.27a10.93,10.93,0,0,0-.78-7.26q-1.55-2.85-6-2.85h-15.3a7.41,7.41,0,0,0-6.22,3.11,14.44,14.44,0,0,0-2.85,6.74q-1.3,7.26-2.34,13.62t-2.07,12.44c-.69,4.07-1.39,8.21-2.08,12.45s-1.47,8.77-2.33,13.61h-36l9.33-52.89a60.6,60.6,0,0,1,5.71-17,56.07,56.07,0,0,1,10.37-14.39,47.82,47.82,0,0,1,14.26-9.85,42.36,42.36,0,0,1,17.63-3.63Z"/><path class="cls-2" d="M1358.44,1073.45a39.4,39.4,0,0,1,16.86,3.5,35.32,35.32,0,0,1,19.7,23.72,41.46,41.46,0,0,1,.52,17.38l-3.63,20.74-35.78-.26,2.07-11.41q.52-2.85,1.17-6.09a24.39,24.39,0,0,0,.52-5.84,6.25,6.25,0,0,0-1.82-4.27c-1.12-1.13-3.07-1.69-5.83-1.69h-7q-8.82,0-10.37,8.82L1319,1207.5q-1.56,9.09,7.26,9.08h7a10.29,10.29,0,0,0,6.36-1.69,10.81,10.81,0,0,0,3.37-4.41,21.83,21.83,0,0,0,1.55-6q.39-3.24.91-6.09l3.11-17.38,35.78-.25-4.66,26.7a47.92,47.92,0,0,1-6.62,17.5,60.47,60.47,0,0,1-12.18,14.27,57,57,0,0,1-15.82,9.59,47.85,47.85,0,0,1-18,3.5h-7a39.58,39.58,0,0,1-16.86-3.5,34.34,34.34,0,0,1-12.44-9.59,36.61,36.61,0,0,1-7-14.27,42.08,42.08,0,0,1-.52-17.5l15.81-89.45a48,48,0,0,1,6.49-17.38,59.16,59.16,0,0,1,12.06-14.13,56.84,56.84,0,0,1,15.81-9.59,47.66,47.66,0,0,1,18-3.5Z"/><path class="cls-2" d="M1424.82,1225.39l-4.67,27h-35.78l31.38-178.91h35.78l-11.93,67.93,44.08-67.93h39.41Zm29.56,27-7.26-53.67,31.12-48.23,13.48,101.9Z"/><path class="cls-2" d="M1504.42,1252.36l31.38-178.91h35.78l-31.37,178.91Z"/><path class="cls-2" d="M1552.13,1252.36l28-160,21,85.82-13,74.16Zm85-93.09,15-85.82H1688l-31.37,178.91h-35.79l-38.63-171.91,1.3-7h36Z"/><path class="cls-2" d="M1753.34,1073.19a38.62,38.62,0,0,1,16.72,3.5,35.41,35.41,0,0,1,19.58,23.85,42.31,42.31,0,0,1,.52,17.51l-3.11,19.44-36,.26,2.07-10.72q.51-2.88,1.17-6.15a24.83,24.83,0,0,0,.52-5.89,6.41,6.41,0,0,0-1.82-4.32q-1.7-1.7-5.83-1.7h-10.89q-9.09,0-10.64,8.84l-15.81,89.67q-1.56,9.11,7.52,9.1h10.89q4.66,0,7-2.34a14.7,14.7,0,0,0,3.5-5.83,33.9,33.9,0,0,0,1.55-7.39c.26-2.59.56-4.93.91-7h35.53l-2.34,13.48a49.32,49.32,0,0,1-6.48,17.5,58.2,58.2,0,0,1-12.06,14.27,56.9,56.9,0,0,1-15.82,9.59,47.82,47.82,0,0,1-18,3.5h-10.89a39.5,39.5,0,0,1-16.85-3.5,35.13,35.13,0,0,1-19.71-23.86,42.42,42.42,0,0,1-.52-17.5l15.82-89.45a48,48,0,0,1,6.61-17.51,60.62,60.62,0,0,1,12.19-14.26,56.75,56.75,0,0,1,15.82-9.59,47.85,47.85,0,0,1,18-3.5Zm-29,80.64h59.64l-6.49,35.78h-59.63Z"/><path class="cls-3" d="M1236.19,1654.26c-3.23,1.77-7,3.77-11.16,6s-9,4.19-14.22,6.62-11.11,4.35-17.2,6.79c-6.2,2.28-13,4.19-20,6.5-7.19,1.75-14.6,4.1-22.53,5.8s-16.15,3.63-24.81,4.88c-4.28.7-8.69,1.42-13.1,2.19-4.48.59-9,1.16-13.66,1.72l-6.94.92q-3.48.32-7.08.62c-4.72.38-9.53.83-14.38,1.23-9.73.36-19.66,1.26-29.8,1.39-20.24.61-41.17-.14-62.4-1.29-10.61-.6-21.3-1.64-32-2.6-5.37-.68-10.74-1.32-16.06-2l-7.88-1-8.1-1.31-16.22-2.41c-5.43-.82-10.56-2-15.84-2.89s-10.52-1.94-15.74-3.09-10.41-2.37-15.61-3.6-10.33-2.36-15.37-3.84c-5.11-1.3-10.16-2.64-15.22-4-10-2.84-19.84-5.89-29.5-9-9.47-3.48-19-6.48-28-10.2-4.55-1.81-9-3.55-13.46-5.3s-8.63-3.8-12.87-5.69a482.86,482.86,0,0,1-46.45-23.92q-10.29-6.41-19.51-12.58c-5.88-4.4-11.83-8.19-16.84-12.48a261.17,261.17,0,0,1-25.14-23.06l-8.34-9.58c-2.4-2.78-4.05-5.52-5.59-7.53-2.63-3.65-4.19-5.8-4.52-6.28.28.52,1.55,2.85,3.71,6.79,1.28,2.2,2.65,5.15,4.74,8.25s4.6,6.61,7.37,10.55,6.47,7.82,10.21,12.37c1,1.1,1.85,2.28,2.89,3.39s2.18,2.14,3.3,3.26q3.39,3.29,7,6.88c4.77,4.78,10.47,9.16,16.17,14.2,5.92,4.76,12.42,9.37,19.16,14.24,13.8,9.26,29.09,18.89,46.22,27.23,4.24,2.16,8.51,4.41,12.94,6.5s9,4,13.53,6c2.28,1,4.61,2,6.89,3.09,2.38.89,4.72,1.82,7.1,2.76,4.77,1.83,9.59,3.67,14.39,5.55q14.68,5.22,30,10.08c10.3,2.93,20.58,6.34,31.22,8.65,5.33,1.25,10.62,2.54,16,3.83s10.79,2.21,16.23,3.29,10.91,2.31,16.3,3.13l16.19,2.58,8.11,1.23,8.41,1,16.47,1.83c11,.91,21.88,1.9,32.77,2.4s21.7,1,32.38.68c5.34-.08,10.65,0,15.91-.19s10.5-.48,15.68-.7,10.33-.63,15.41-1.09,10.1-.83,15.06-1.35,9.86-1.31,14.7-2c2.41-.29,4.83-.62,7.21-1s4.73-.82,7.08-1.25c4.69-.82,9.32-1.6,13.88-2.44s9-2,13.34-3c8.74-1.85,17-4.39,25-6.61s15.47-5.09,22.66-7.46c7-3,13.68-5.5,19.82-8.33,6-3,11.83-5.44,16.89-8.41s9.72-5.51,13.77-8.13,7.52-5.19,10.63-7.32,5.34-4.34,7.36-6c3-2.5,5-4.13,5.7-4.78-.81.51-2.93,1.9-6.26,4C1242.05,1650.61,1239.46,1652.5,1236.19,1654.26Z"/><path class="cls-3" d="M925.12,1645.81c160.72,21.69,299-20.41,309-94s-112.27-150.86-273-172.55-299,20.37-309,94S764.4,1624.12,925.12,1645.81Zm101.32-240.53c75.57,23.75,126.2,68,120.36,111.29-7.35,54.5-101.5,86.77-210.29,72.09s-191-70.77-183.65-125.26,101.5-86.78,210.29-72.09q8,1.08,15.86,2.46-14-2.77-28.7-5c3.08.37,6.19.74,9.35,1.17,158.73,21.42,261,98.09,253.56,153.48S1086.77,1645.62,928,1624.2c-82.41-11.12-149.62-37.13-194.16-67.37,43.94,24.62,104.52,45.26,176.78,55,158.73,21.42,277.35-22.8,284.5-75.83C1200.94,1493.2,1135.32,1436.76,1026.44,1405.28Z"/><path class="cls-3" d="M225.7,1381.16c9.42,8,19.23,15.35,29,22.38,4.92,3.39,9.81,6.82,14.77,9.82l7.38,4.64c2.47,1.47,4.9,2.93,7.36,4.38,4.82,2.94,9.7,5.55,14.44,8.17s9.49,5,14.08,7.23c9.18,4.58,18,8.57,26.2,12s15.74,6.46,22.48,9,12.65,4.56,17.53,6.17,8.77,2.76,11.39,3.62c2.31.67,3.67,1.08,4,1.19-.61-.33-5.84-3-14.53-7.38-4.62-2.37-10.22-5.23-16.65-8.54-3.25-1.62-6.62-3.46-10.2-5.38s-7.34-3.9-11.24-6c-7.83-4.2-16.2-9-25-14.08-4.42-2.55-8.89-5.27-13.45-8.07s-9.25-5.6-13.87-8.7c-9.42-5.93-18.78-12.73-28.35-19.48-9.4-7-18.9-14.22-27.93-22.13s-18.07-15.88-26.32-24.36c-4.11-4.27-8.07-8.56-11.83-13a155.9,155.9,0,0,1-10.3-13.76,133.77,133.77,0,0,1-8.42-14.46,99.19,99.19,0,0,1-6.26-14.86c-.38-1.29-.94-2.7-1.2-3.88s-.59-2.41-.88-3.6c-.59-2.41-.94-5-1.39-7.44-.22-2.51-.67-4.94-.71-7.4-.07-1.2-.15-2.43-.21-3.61s0-2.41,0-3.6a125.11,125.11,0,0,1,3-25.85,155.8,155.8,0,0,1,5.76-19.39c2-5.23,3.78-9.3,5.09-12,1.16-2.35,1.84-3.76,2-4.08-.21.28-1.06,1.53-2.56,3.65a121.67,121.67,0,0,0-6.7,11.16,130.6,130.6,0,0,0-8,19.09,114.21,114.21,0,0,0-5.58,27c-.1,1.29-.2,2.58-.28,3.89s-.07,2.65-.11,4c-.12,2.7.13,5.44.21,8.24.06,1.41.28,2.8.43,4.23s.28,2.84.61,4.33.55,3,.86,4.43.67,2.76,1,4.15a113.44,113.44,0,0,0,6,17,124.37,124.37,0,0,0,8.58,16.25,183,183,0,0,0,22.79,29.46A344.57,344.57,0,0,0,225.7,1381.16Z"/><path class="cls-4" d="M967.21,1361.07C764,1333.63,587.91,1394.89,574,1497.91s139.6,208.81,342.84,236.24,379.35-33.86,393.25-136.88S1170.5,1388.5,967.21,1361.07ZM652.14,1473.26c9.94-73.64,148.24-115.7,309-94s282.93,98.91,273,172.55-148.25,115.7-309,94S642.21,1546.85,652.14,1473.26ZM1244.77,1650c-2,1.62-4.29,3.78-7.36,6s-6.65,4.56-10.63,7.32-8.74,5.16-13.77,8.13-10.85,5.4-16.89,8.41c-6.14,2.83-12.82,5.36-19.82,8.33-7.19,2.37-14.65,5.15-22.66,7.46s-16.26,4.76-25,6.61c-4.36,1-8.82,2.07-13.34,3s-9.19,1.62-13.88,2.44c-2.35.43-4.69.86-7.08,1.25s-4.8.67-7.21,1c-4.84.67-9.73,1.33-14.7,2s-10,.94-15.06,1.35-10.2.91-15.41,1.09-10.4.44-15.68.7-10.57.11-15.91.19c-10.68.27-21.48-.22-32.38-.68s-21.8-1.49-32.77-2.4l-16.47-1.83-8.41-1-8.11-1.23L896,1705.47c-5.39-.82-10.9-2.09-16.3-3.13s-10.9-2.08-16.23-3.29-10.66-2.58-16-3.83c-10.64-2.31-20.92-5.72-31.22-8.65q-15.25-4.85-30-10.08c-4.8-1.88-9.62-3.72-14.39-5.55-2.38-.94-4.72-1.87-7.1-2.76-2.28-1.06-4.61-2.08-6.89-3.09-4.56-2.07-9-4.08-13.53-6s-8.7-4.34-12.94-6.5c-17.13-8.34-32.42-18-46.22-27.23-6.74-4.87-13.24-9.48-19.16-14.24-5.7-5-11.4-9.42-16.17-14.2q-3.6-3.58-7-6.88c-1.12-1.12-2.21-2.19-3.3-3.26s-1.94-2.29-2.89-3.39c-3.74-4.55-7.4-8.43-10.21-12.37s-5.24-7.49-7.37-10.55-3.46-6.05-4.74-8.25c-2.16-3.94-3.43-6.27-3.71-6.79.33.48,1.89,2.63,4.52,6.28,1.54,2,3.19,4.75,5.59,7.53l8.34,9.58a261.17,261.17,0,0,0,25.14,23.06c5,4.29,11,8.08,16.84,12.48q9.2,6.2,19.51,12.58a482.86,482.86,0,0,0,46.45,23.92c4.24,1.89,8.5,3.87,12.87,5.69s8.91,3.49,13.46,5.3c9,3.72,18.5,6.72,28,10.2,9.66,3.1,19.5,6.15,29.5,9,5.06,1.35,10.11,2.69,15.22,4,5,1.48,10.19,2.7,15.37,3.84s10.41,2.41,15.61,3.6,10.47,2,15.74,3.09,10.41,2.07,15.84,2.89l16.22,2.41,8.1,1.31,7.88,1c5.32.63,10.69,1.27,16.06,2,10.69,1,21.38,2,32,2.6,21.23,1.15,42.16,1.9,62.4,1.29,10.14-.13,20.07-1,29.8-1.39,4.85-.4,9.66-.85,14.38-1.23q3.6-.3,7.08-.62l6.94-.92c4.61-.56,9.18-1.13,13.66-1.72,4.41-.77,8.82-1.49,13.1-2.19,8.66-1.25,16.85-3.23,24.81-4.88s15.34-4,22.53-5.8c7-2.31,13.77-4.22,20-6.5,6.09-2.44,12-4.41,17.2-6.79s10-4.41,14.22-6.62,7.93-4.25,11.16-6,5.86-3.65,8-5c3.33-2.14,5.45-3.53,6.26-4C1249.73,1645.88,1247.79,1647.51,1244.77,1650Z"/><path class="cls-4" d="M910.66,1611.84c-72.26-9.75-132.84-30.39-176.78-55,44.54,30.24,111.75,56.25,194.16,67.37,158.73,21.42,277.7-25.38,285.18-80.77S1118.39,1411.37,959.66,1390c-3.16-.43-6.27-.8-9.35-1.17q14.7,2.21,28.7,5-7.83-1.37-15.86-2.46c-108.79-14.69-202.94,17.59-210.29,72.09S827.73,1574,936.51,1588.66s202.94-17.59,210.29-72.09c5.84-43.27-44.79-87.54-120.36-111.29,108.88,31.48,174.5,87.92,168.72,130.73C1188,1589,1069.39,1633.26,910.66,1611.84Zm33.5-156.79v-11.8c0-3.82,3.09-7,8-8.14,5.54-1.34,11.25-.31,14.86,2.72a6.63,6.63,0,0,1,2.6,5.2c0,8,0,15.93,0,23.89,0,4.24-3.76,7.39-9.81,8.4-5.61.93-11.49-.87-14.3-4.39a6.3,6.3,0,0,1-1.32-4.18C944.17,1462.85,944.16,1459,944.16,1455.05Zm82.89,35.08c.7,19.3-15.67,36.93-41.36,44.47-22.5,6.59-44.58,5.71-65.42-3.08-17.15-7.24-28.29-17.68-32.17-31.14-4.2-14.57,1.12-27.68,15.13-39.15a22.92,22.92,0,0,1,7.23-4.5c5.42-1.89,11.95-.94,16,2.39,3.61,2.94,3.57,7.7-.21,10.73-2.78,2.24-5.71,4.37-7.87,6.94-4.11,4.88-6,10.1-5.79,15.71.21,5.34,2.39,10.28,6.6,14.78,6.24,6.66,15,11.19,26.33,13.1,16.28,2.74,30.69.12,42.71-7.76,7.94-5.2,12.23-11.68,12.88-19.16.73-8.37-3.1-15.68-11.43-21.91-1.75-1.32-3.54-2.62-4.32-4.38-1.81-4.05.27-8,5.35-10.11s11.58-1.66,16,1.31q15.27,10.32,19.24,24.67A33.59,33.59,0,0,1,1027.05,1490.13Z"/><path class="cls-4" d="M548.33,1550.24a132.58,132.58,0,0,1-4.7-56.44,130.85,130.85,0,0,1,15.74-46.72c-213-49.31-352.73-131.07-351.84-222.27.25-24.38,10.53-47.88,29.55-70.09,29.66-34.64,80.64-66.21,147.95-93-1.77.43-30.87,7.31-69.21,24.19a540.52,540.52,0,0,0-72.46,39.95c-34.15,22.75-60.53,47.49-77.72,73.75-14.81,22.67-22.78,46.41-23,71C141.49,1384.06,306.05,1494.49,548.33,1550.24ZM175.88,1326.15a124.37,124.37,0,0,1-8.58-16.25,113.44,113.44,0,0,1-6-17c-.37-1.39-.76-2.64-1-4.15s-.57-3-.86-4.43-.43-2.9-.61-4.33-.37-2.82-.43-4.23c-.08-2.8-.33-5.54-.21-8.24,0-1.35.06-2.7.11-4s.18-2.6.28-3.89a114.21,114.21,0,0,1,5.58-27,130.6,130.6,0,0,1,8-19.09,121.67,121.67,0,0,1,6.7-11.16c1.5-2.12,2.35-3.37,2.56-3.65-.14.32-.82,1.73-2,4.08-1.31,2.7-3.07,6.77-5.09,12a155.8,155.8,0,0,0-5.76,19.39,125.11,125.11,0,0,0-3,25.85c0,1.19,0,2.39,0,3.6s.14,2.41.21,3.61c0,2.46.49,4.89.71,7.4.45,2.43.8,5,1.39,7.44.29,1.19.59,2.39.88,3.6s.82,2.59,1.2,3.88a99.19,99.19,0,0,0,6.26,14.86,133.77,133.77,0,0,0,8.42,14.46,155.9,155.9,0,0,0,10.3,13.76c3.76,4.43,7.72,8.72,11.83,13,8.25,8.48,17.23,16.58,26.32,24.36s18.53,15.14,27.93,22.13c9.57,6.75,18.93,13.55,28.35,19.48,4.62,3.1,9.36,5.76,13.87,8.7s9,5.52,13.45,8.07c8.81,5,17.18,9.88,25,14.08,3.9,2.09,7.66,4.11,11.24,6s6.95,3.76,10.2,5.38c6.43,3.31,12,6.17,16.65,8.54,8.69,4.41,13.92,7,14.53,7.38-.31-.11-1.67-.52-4-1.19-2.62-.86-6.52-1.92-11.39-3.62s-10.81-3.61-17.53-6.17-14.32-5.43-22.48-9-17-7.46-26.2-12c-4.59-2.26-9.27-4.74-14.08-7.23s-9.62-5.23-14.44-8.17c-2.46-1.45-4.89-2.91-7.36-4.38l-7.38-4.64c-5-3-9.85-6.43-14.77-9.82-9.77-7-19.58-14.37-29-22.38a344.57,344.57,0,0,1-27-25.55A183,183,0,0,1,175.88,1326.15Z"/><path class="cls-4" d="M325.59,1294.39c-9.08-4.11-17.86-8.52-26.18-13.34A195.13,195.13,0,0,1,276,1265.27a116.4,116.4,0,0,1-19-18.57,81.33,81.33,0,0,1-7-10.45,59.84,59.84,0,0,1-4.6-11.24c-.26-1-.49-1.92-.76-2.88s-.36-1.94-.55-2.92-.22-2-.37-2.94l-.1-.76,0-.37c0,.13,0,.21,0,.29v-.2l0-1.76c0-1.17,0-2.33,0-3.5a10.72,10.72,0,0,1,.08-1.51l.12-1.33c0-.92.11-1.81.17-2.71s.37-1.93.51-2.91a64.46,64.46,0,0,1,8.32-21.53c3.72-6.54,8.31-12.06,12.67-17.19a189.68,189.68,0,0,1,25.64-23.4c7.66-5.78,14-10,18.27-12.69,3.56-2.25,5.74-3.59,6.42-4-.7.32-3,1.43-6.77,3.29-4.55,2.24-11.13,5.78-19.43,10.58a200.4,200.4,0,0,0-28.55,20.56,116.6,116.6,0,0,0-15.53,16.55,89.85,89.85,0,0,0-13.08,23.66c-.41,1.17-.84,2.35-1.22,3.58s-.64,2.66-.94,4l-.47,2a16.33,16.33,0,0,0-.37,1.92c-.16,1.17-.31,2.31-.47,3.47l-.25,1.74,0,.23a.07.07,0,0,1,0,.06s0,.1,0,.67l0,.51,0,1c0,1.37-.14,2.78-.1,4.15s.1,2.8.14,4.19.27,2.82.43,4.23a83.53,83.53,0,0,0,4,16.57,100.9,100.9,0,0,0,7,15.37,135.68,135.68,0,0,0,9.17,14,162.55,162.55,0,0,0,10.71,12.55,218.12,218.12,0,0,0,24.34,22c8.56,6.76,17.57,13,26.85,19s18.84,11.34,28.61,16.43a614.74,614.74,0,0,0,60.28,27.08c40.91,16,82.58,28.69,121.88,38.9,18.55,4.74,36.57,9,53.8,12.69,1.49-1.77,3-3.51,4.6-5.25a193,193,0,0,1,23.42-21.66c-9.2-1.49-18.58-3.08-28-4.82-13.59-2.45-27.46-5.13-41.24-8.13-27.54-6-54.93-12.84-80.35-20.38s-48.92-15.57-68.7-23.56c-9.89-4-18.86-7.93-26.73-11.65S343.92,1321,338.42,1318s-9.75-5.62-12.65-7.31c-2.16-1.33-3.59-2.15-4.17-2.51.6.3,2.07,1.1,4.27,2.24,3,1.52,7.28,4,12.94,6.56s12.51,5.79,20.5,9,17.1,6.67,27.09,10.06c20,6.8,43.67,13.53,69.24,19.53s53,11.28,80.57,15.62c13.8,2.2,27.55,4,41.2,5.74s27,3.15,40,4.39c2.43.25,4.84.47,7.24.68a285.35,285.35,0,0,1,29.24-15.92c1-.47,2-.92,3-1.37-6.21-.47-12.69-1-19.41-1.55-31.06-2.64-67.27-6.62-105.81-12.65s-79.42-14-119.43-25.18c-20-5.62-39.72-12-58.75-19.33C344,1302.36,334.62,1298.58,325.59,1294.39Z"/><path class="cls-4" d="M560,1578.48q-18.86-4-38.46-8.67c-23.73-5.76-48.15-12.36-72.73-20s-49.33-16.23-73.73-25.95c-12.18-4.89-24.32-10-36.25-15.43s-23.68-11.26-35.21-17.33a550.55,550.55,0,0,1-65.19-40.65c-10.13-7.37-19.76-15.16-29-23.11a326.78,326.78,0,0,1-25.83-24.74c-15.94-17.13-29.25-35.48-38.59-54.42a170.68,170.68,0,0,1-16.9-55.77c-.4-4.41-.83-8.68-.92-12.85,0-1-.08-2-.12-3s0-2.08,0-3.1c0-2.07.08-4,.13-5.91a164.12,164.12,0,0,1,2.35-21.15,170.88,170.88,0,0,1,7.8-28.79c1.19-3.23,2.15-5.68,2.84-7.32.59-1.45.94-2.27,1-2.45-.08.18-.49,1-1.18,2.35-.8,1.55-1.94,3.92-3.35,7a171.47,171.47,0,0,0-9.93,28.38,165.56,165.56,0,0,0-4,21.5c-.2,2-.43,4.09-.57,6.11-.08,1-.14,2.06-.23,3.11s-.06,2.16-.1,3.27c-.22,4.33-.12,8.84,0,13.5a184.26,184.26,0,0,0,13.69,60.59c8.52,21,20.89,42,36.3,61.78A358,358,0,0,0,197,1444.28c9,9.32,18.68,18.17,28.73,26.81,20.15,17.29,42.18,33.05,65.11,47.88s46.88,28.59,71.24,41.22,49.14,24.15,73.81,34.64,49.27,19.86,73.22,28.34c45.18,15.9,88.15,28.39,125.77,38.07C600.56,1635.64,575.35,1607.62,560,1578.48Z"/><path class="cls-3" d="M1548.41,1509.11c4.44,1.4,8.78,2.89,13,4.46h1.41Q1555.79,1511.25,1548.41,1509.11Z"/></svg>