<?xml version="1.0" encoding="UTF-8"?>
<svg id="Capa_1" data-name="Capa 1" xmlns="http://www.w3.org/2000/svg" viewBox="0 0 1026.7 746.12">
  <path d="m24.09,118.14c-1.39,0-2.79-.4-4.02-1.23-10.23-6.92-17.08-17.84-19.3-30.74-2.45-14.2,1.06-29.4,9.37-40.69,2.36-3.19,6.86-3.89,10.06-1.54,3.2,2.36,3.89,6.87,1.53,10.05-6.04,8.21-8.57,19.31-6.78,29.73,1.56,9,6.24,16.56,13.19,21.27,3.29,2.23,4.16,6.7,1.93,10-1.39,2.05-3.66,3.15-5.97,3.15Z"/>
  <path d="m509.03,118.14c1.39,0,2.79-.4,4.02-1.23,10.23-6.92,17.08-17.84,19.3-30.74,2.45-14.2-1.06-29.4-9.37-40.69-2.36-3.19-6.86-3.89-10.06-1.54-3.2,2.36-3.89,6.87-1.53,10.05,6.04,8.21,8.57,19.31,6.78,29.73-1.56,9-6.24,16.56-13.19,21.27-3.29,2.23-4.16,6.7-1.93,10,1.39,2.05,3.66,3.15,5.97,3.15Z"/>
  <path d="m495.51,746.12c-6.43,0-11.51-.24-14.91-.46-36.88-2.45-73.87-12.94-106.95-30.32-71.09-37.34-121.51-101.09-138.32-174.89-8.69-38.14-10.06-64.22-9.85-108.24.36-73.69-.1-151.25-1.38-230.52-.4-24.88,19.44-45.37,44.32-45.77,24.85-.32,45.37,19.44,45.77,44.32,1.29,79.9,1.75,158.09,1.39,232.41-.21,42.34,1.36,60.39,7.6,87.78,10.8,47.38,45.33,90.43,92.38,115.14,22.04,11.58,46.6,18.55,71.04,20.18,14.07.94,86.92,2.82,140.11-52.33,17.11-17.74,28.75-36.25,35.57-56.59,2.14-6.38,4.11-14.92,5.85-25.39,5.1-30.65,5.69-63.49,1.76-97.63-2.84-24.72,14.89-47.06,39.6-49.9,24.71-2.83,47.06,14.89,49.9,39.6,4.89,42.48,4.08,83.76-2.39,122.7-2.56,15.37-5.6,28.21-9.3,39.26-11.02,32.84-29.9,63.29-56.14,90.49-34.7,35.98-80.08,61.15-131.24,72.81-26.33,6-49.42,7.34-64.78,7.34Z"/>
  <path d="m825.63,338.13h-199.03c-24.88,0-45.05-20.17-45.05-45.05V45.05c0-24.88,20.17-45.05,45.05-45.05h355.05c24.88,0,45.05,20.17,45.05,45.05s-20.17,45.05-45.05,45.05h-310v157.94h153.98c24.88,0,45.05,20.17,45.05,45.05s-20.17,45.05-45.05,45.05Z"/>
  <path d="m455.58,125.39H77.53c-24.88,0-45.05-20.17-45.05-45.05s20.17-45.05,45.05-45.05h378.05c24.88,0,45.05,20.17,45.05,45.05s-20.17,45.05-45.05,45.05Z"/>
</svg>