<svg id="Capa_1" data-name="Capa 1" xmlns="http://www.w3.org/2000/svg" viewBox="0 0 2000 2000"><defs><style>.cls-1{fill:none;}.cls-2{fill:#a7aaff;}.cls-3{fill:#fff;}</style></defs><title>LOGO LST</title><path class="cls-1" d="M1787,1361.48c-5.64,3.08-12.17,6.57-19.46,10.5s-15.8,7.31-24.82,11.55-19.37,7.59-30,11.84c-10.83,4-22.64,7.31-34.85,11.34-12.54,3.07-25.45,7.16-39.29,10.13s-28.18,6.33-43.3,8.51c-7.45,1.22-15.15,2.48-22.85,3.82-7.82,1-15.78,2-23.82,3l-12.11,1.59q-6.08.56-12.36,1.09c-8.23.66-16.62,1.44-25.09,2.14-17,.63-34.3,2.21-52,2.43-35.3,1.07-71.82-.25-108.86-2.26-18.51-1-37.15-2.86-55.81-4.54-9.36-1.18-18.73-2.29-28-3.39l-13.75-1.71-14.12-2.29-28.3-4.2c-9.48-1.43-18.42-3.41-27.65-5-9.19-1.85-18.35-3.39-27.44-5.39s-18.18-4.14-27.25-6.29c-9-2-18-4.12-26.81-6.69-8.91-2.27-17.73-4.62-26.55-7-17.44-5-34.61-10.27-51.46-15.7-16.53-6.07-33.1-11.29-48.81-17.79-7.94-3.15-15.74-6.2-23.47-9.23-7.63-3.18-15.07-6.64-22.46-9.94-29.63-13.06-56.54-27.6-81-41.73q-18-11.17-34-21.94c-10.25-7.68-20.64-14.3-29.38-21.78A455.36,455.36,0,0,1,728,1212.33q-8.18-9.4-14.56-16.71c-4.18-4.86-7.07-9.63-9.74-13.13-4.59-6.38-7.31-10.13-7.89-11,.49.91,2.71,5,6.46,11.85,2.25,3.83,4.62,9,8.27,14.39s8,11.53,12.87,18.4,11.28,13.65,17.81,21.6c1.66,1.91,3.23,4,5,5.9s3.8,3.73,5.76,5.69q5.9,5.75,12.19,12c8.32,8.34,18.27,16,28.21,24.76,10.32,8.31,21.67,16.36,33.42,24.86,24.08,16.15,50.75,33,80.65,47.5,7.4,3.76,14.85,7.69,22.57,11.34,7.83,3.44,15.65,7,23.6,10.55,4,1.77,8.05,3.55,12,5.39,4.17,1.56,8.25,3.18,12.4,4.82,8.32,3.2,16.72,6.4,25.1,9.68,17.07,6.07,34.55,12,52.29,17.58,18,5.11,35.89,11.06,54.46,15.1,9.31,2.18,18.52,4.42,27.89,6.68s18.83,3.85,28.32,5.75,19,4,28.44,5.45l28.25,4.5,14.15,2.14,14.67,1.67,28.74,3.19c19.13,1.59,38.17,3.31,57.16,4.19s37.86,1.65,56.5,1.17c9.31-.12,18.57,0,27.76-.32s18.3-.83,27.34-1.22,18-1.1,26.9-1.9,17.62-1.46,26.26-2.37c8.68-1.13,17.2-2.28,25.65-3.44,4.21-.51,8.44-1.09,12.58-1.68s8.26-1.42,12.35-2.17c8.18-1.43,16.27-2.8,24.22-4.26s15.66-3.41,23.26-5.15c15.26-3.24,29.75-7.65,43.63-11.54s27-8.87,39.53-13c12.21-5.18,23.86-9.6,34.59-14.53,10.53-5.25,20.62-9.49,29.46-14.67s17-9.61,24-14.19c6.94-4.82,13.12-9,18.53-12.77s9.31-7.57,12.84-10.4c5.27-4.35,8.65-7.2,10-8.33-1.43.88-5.13,3.3-10.94,7C1797.23,1355.11,1792.72,1358.42,1787,1361.48Z"/><path class="cls-1" d="M211.49,931c11.69,11.12,23.86,21.3,36,31.06,6.11,4.7,12.17,9.47,18.33,13.63l9.16,6.44c3.07,2,6.09,4.06,9.13,6.07,6,4.08,12,7.71,17.93,11.34,6,3.46,11.77,6.89,17.48,10,11.38,6.35,22.32,11.88,32.51,16.7s19.53,9,27.9,12.48,15.7,6.32,21.76,8.56,10.88,3.83,14.13,5c2.86.94,4.56,1.51,4.94,1.65-.76-.46-7.25-4.11-18-10.24l-20.67-11.85c-4-2.24-8.22-4.79-12.66-7.46s-9.1-5.42-13.95-8.31c-9.71-5.84-20.11-12.53-31-19.54-5.48-3.54-11-7.31-16.69-11.2-5.6-4.08-11.49-7.77-17.22-12.08-11.69-8.22-23.31-17.66-35.18-27-11.66-9.7-23.46-19.74-34.67-30.71-11.28-10.8-22.42-22-32.66-33.8-5.1-5.93-10-11.88-14.69-18a218.74,218.74,0,0,1-12.78-19.08,191.46,191.46,0,0,1-10.45-20.08A146.41,146.41,0,0,1,142.3,804c-.48-1.79-1.17-3.75-1.5-5.39s-.73-3.35-1.09-5c-.73-3.35-1.16-7-1.72-10.32-.28-3.49-.84-6.86-.89-10.27-.08-1.67-.18-3.37-.25-5s0-3.34,0-5a193.73,193.73,0,0,1,3.75-35.87,238.11,238.11,0,0,1,7.15-26.91c2.51-7.26,4.69-12.9,6.32-16.64,1.44-3.27,2.28-5.22,2.46-5.68-.26.4-1.32,2.13-3.17,5.08A171.17,171.17,0,0,0,145,698.46a193.2,193.2,0,0,0-10,26.49,174.74,174.74,0,0,0-6.93,37.49c-.12,1.78-.25,3.57-.35,5.38s-.08,3.69-.13,5.56c-.15,3.74.15,7.54.25,11.43.08,2,.36,3.88.54,5.87s.35,3.94.76,6,.68,4.11,1.06,6.15.84,3.83,1.3,5.76A169.57,169.57,0,0,0,139,832.14a182.52,182.52,0,0,0,10.65,22.54,253.48,253.48,0,0,0,28.28,40.89A453.23,453.23,0,0,0,211.49,931Z"/><path class="cls-2" d="M611.91,1165.64a204.81,204.81,0,0,1-5.84-78.32,196.7,196.7,0,0,1,19.53-64.83C361.28,954.07,187.83,840.61,188.94,714.06c.31-33.83,13.06-66.44,36.68-97.26,36.8-48.07,100.07-91.88,183.62-129.08-2.21.59-38.32,10.15-85.9,33.57-33.43,17.27-63.56,35.82-89.94,55.44C191,608.29,158.28,642.63,137,679.07c-18.39,31.44-28.28,64.39-28.59,98.45C107,935,311.21,1088.28,611.91,1165.64Zm-462.26-311A182.52,182.52,0,0,1,139,832.14a169.57,169.57,0,0,1-7.45-23.54c-.46-1.93-.94-3.66-1.3-5.76s-.71-4.11-1.06-6.15-.54-4-.76-6-.46-3.91-.54-5.87c-.1-3.89-.4-7.69-.25-11.43,0-1.87.08-3.74.13-5.56s.23-3.6.35-5.38A174.74,174.74,0,0,1,135.05,725a193.2,193.2,0,0,1,10-26.49A171.17,171.17,0,0,1,153.36,683c1.85-3,2.91-4.68,3.17-5.08-.18.46-1,2.41-2.46,5.68-1.63,3.74-3.81,9.38-6.32,16.64a238.11,238.11,0,0,0-7.15,26.91A193.73,193.73,0,0,0,136.85,763c0,1.65,0,3.32,0,5s.17,3.35.25,5c.05,3.41.61,6.78.89,10.27.56,3.37,1,7,1.72,10.32.36,1.64.74,3.32,1.09,5s1,3.6,1.5,5.39a146.41,146.41,0,0,0,7.76,20.61,191.46,191.46,0,0,0,10.45,20.08,218.74,218.74,0,0,0,12.78,19.08c4.67,6.16,9.59,12.11,14.69,18,10.24,11.77,21.38,23,32.66,33.8,11.21,11,23,21,34.67,30.71,11.87,9.36,23.49,18.8,35.18,27,5.73,4.31,11.62,8,17.22,12.08,5.66,3.89,11.21,7.66,16.69,11.2,10.93,7,21.33,13.7,31,19.54,4.85,2.89,9.52,5.7,13.95,8.31s8.63,5.22,12.66,7.46l20.67,11.85c10.78,6.13,17.27,9.78,18,10.24-.38-.14-2.08-.71-4.94-1.65-3.25-1.19-8.09-2.66-14.13-5s-13.42-5-21.76-8.56-17.78-7.54-27.9-12.48-21.13-10.35-32.51-16.7c-5.71-3.15-11.52-6.58-17.48-10-5.88-3.63-11.94-7.26-17.93-11.34-3-2-6.06-4-9.13-6.07l-9.16-6.44c-6.16-4.16-12.22-8.93-18.33-13.63-12.13-9.76-24.3-19.94-36-31.06a453.23,453.23,0,0,1-33.56-35.44A253.48,253.48,0,0,1,149.65,854.68Z"/><path class="cls-2" d="M335.46,810.61A351.85,351.85,0,0,1,303,792.1a242,242,0,0,1-29.07-21.89,154.39,154.39,0,0,1-23.61-25.78,115.11,115.11,0,0,1-8.67-14.49,89.85,89.85,0,0,1-5.71-15.6c-.33-1.33-.61-2.66-.94-4s-.45-2.69-.68-4.05-.28-2.75-.46-4.08l-.12-1.05,0-.51c0,.17,0,.28,0,.39v-.28l-.05-2.44c0-1.62,0-3.23,0-4.85a17.54,17.54,0,0,1,.1-2.1l.16-1.84c.05-1.28.12-2.52.2-3.77s.46-2.67.63-4A96.37,96.37,0,0,1,245,651.84c4.61-9.07,10.32-16.73,15.72-23.84a246.28,246.28,0,0,1,31.83-32.47c9.51-8,17.32-13.81,22.67-17.61,4.42-3.12,7.13-5,8-5.62-.86.46-3.73,2-8.4,4.57-5.65,3.12-13.82,8-24.12,14.69a251,251,0,0,0-35.43,28.53c-6.36,6.55-13.16,13.72-19.27,23a129.79,129.79,0,0,0-16.24,32.84c-.5,1.62-1,3.26-1.52,5-.38,1.88-.78,3.69-1.16,5.56l-.59,2.84a26.9,26.9,0,0,0-.45,2.66c-.21,1.62-.38,3.21-.59,4.82l-.3,2.41,0,.31a.15.15,0,0,1,0,.09s0,.14,0,.94l0,.71,0,1.41c-.05,1.9-.18,3.86-.13,5.76s.13,3.88.18,5.81.33,3.92.53,5.87a126.37,126.37,0,0,0,4.95,23,149.5,149.5,0,0,0,8.72,21.32,195.34,195.34,0,0,0,11.39,19.4,218.28,218.28,0,0,0,13.29,17.41,283.3,283.3,0,0,0,30.21,30.57,411.24,411.24,0,0,0,33.32,26.31c11.54,8.08,23.39,15.74,35.51,22.8a723.36,723.36,0,0,0,74.82,37.57c50.77,22.24,102.49,39.82,151.26,54,23,6.57,45.4,12.44,66.78,17.6,1.85-2.46,3.75-4.87,5.7-7.28a251.87,251.87,0,0,1,29.07-30.06c-11.41-2.07-23.06-4.28-34.8-6.69-16.86-3.41-34.08-7.12-51.18-11.29-34.19-8.25-68.17-17.81-99.72-28.27a872.47,872.47,0,0,1-85.27-32.7c-12.28-5.55-23.41-11-33.18-16.16s-18.18-10.06-25-14.18-12.1-7.79-15.7-10.15c-2.69-1.84-4.47-3-5.18-3.49.74.43,2.57,1.53,5.3,3.12,3.73,2.1,9,5.48,16.06,9.11s15.52,8,25.44,12.53,21.23,9.24,33.63,14a864.85,864.85,0,0,0,85.92,27.11c31.73,8.31,65.8,15.65,100,21.66,17.12,3.07,34.19,5.62,51.13,8s33.55,4.37,49.68,6.1q4.53.51,9,.93A346.92,346.92,0,0,1,743,910.14c1.21-.65,2.43-1.27,3.67-1.9q-11.57-1-24.09-2.15c-38.55-3.66-83.49-9.19-131.33-17.55S492.65,869.14,443,853.6c-24.78-7.8-49.31-16.7-72.92-26.82C358.26,821.67,346.67,816.43,335.46,810.61Z"/><path class="cls-2" d="M626.39,1204.83q-23.4-5.49-47.73-12c-29.45-8-59.75-17.15-90.27-27.7s-61.22-22.52-91.5-36c-15.12-6.78-30.18-13.84-45-21.41s-29.39-15.63-43.7-24a677.65,677.65,0,0,1-80.9-56.4c-12.58-10.24-24.53-21-36-32.07a428.31,428.31,0,0,1-32.06-34.34c-19.79-23.77-36.3-49.23-47.89-75.52a257.72,257.72,0,0,1-21-77.38c-.51-6.13-1-12-1.14-17.84,0-1.41-.1-2.83-.16-4.22s0-2.89,0-4.31c0-2.87.1-5.5.15-8.2A257.09,257.09,0,0,1,92.21,744a260.3,260.3,0,0,1,9.69-40c1.47-4.48,2.66-7.88,3.52-10.15.74-2,1.17-3.15,1.25-3.41-.11.26-.61,1.37-1.48,3.27-1,2.15-2.41,5.44-4.16,9.78a259.83,259.83,0,0,0-12.32,39.39,256.63,256.63,0,0,0-4.92,29.83c-.26,2.75-.53,5.67-.71,8.48-.1,1.41-.18,2.86-.28,4.31s-.08,3-.13,4.53c-.28,6-.15,12.28,0,18.75a281.2,281.2,0,0,0,17,84.07c10.58,29.13,25.92,58.3,45,85.73a486.53,486.53,0,0,0,31.2,40c11.16,12.93,23.18,25.21,35.66,37.2,25,24,52.35,45.85,80.8,66.44s58.18,39.67,88.42,57.2,61,33.51,91.6,48.06,61.15,27.56,90.88,39.33c56.07,22.06,109.41,39.39,156.1,52.83C676.73,1284.14,645.44,1245.26,626.39,1204.83Z"/><path class="cls-1" d="M1244.32,1346.73c280.4,37.85,521.7-35.6,539-164s-195.86-263.19-476.26-301-521.68,35.53-539,164S963.93,1308.89,1244.32,1346.73Zm215.17-407.59v1.52c110.19,43.41,180.74,112.7,171.58,180.6-12.83,95.08-177.09,151.39-366.88,125.77S931,1123.57,943.78,1028.5s177.09-151.39,366.88-125.78q14,1.89,27.68,4.31-24.43-4.85-50.08-8.72c5.37.65,10.81,1.3,16.31,2.05,276.93,37.37,455.41,171.13,442.36,267.76S1526.34,1346.41,1249.41,1309c-143.78-19.41-261-64.79-338.73-117.55,76.65,43,182.34,79,308.4,96,276.93,37.38,483.87-39.77,496.36-132.29C1724.82,1085.67,1626.29,995.58,1459.49,939.14Z"/><path class="cls-2" d="M1317.74,850c-354.58-47.86-661.73,59-686,238.74S875.3,1453,1229.89,1500.86s661.82-59.07,686.08-238.81S1672.41,897.84,1317.74,850ZM768.07,1045.7c17.34-128.48,258.62-201.85,539-164s493.6,172.57,476.26,301-258.63,201.85-539,164S750.74,1174.1,768.07,1045.7ZM1802,1354.06c-3.53,2.83-7.49,6.59-12.84,10.4s-11.59,8-18.53,12.77c-7.07,4.58-15.27,9-24,14.19s-18.93,9.42-29.46,14.67c-10.73,4.93-22.38,9.35-34.59,14.53-12.54,4.14-25.55,9-39.53,13s-28.37,8.3-43.63,11.54c-7.6,1.74-15.37,3.61-23.26,5.15s-16,2.83-24.22,4.26c-4.09.75-8.19,1.5-12.35,2.17s-8.37,1.17-12.58,1.68c-8.45,1.16-17,2.31-25.65,3.44-8.64.91-17.42,1.64-26.26,2.37s-17.8,1.59-26.9,1.9-18.15.77-27.34,1.22-18.45.2-27.76.32c-18.64.48-37.49-.38-56.5-1.17s-38-2.6-57.16-4.19l-28.74-3.19-14.67-1.67-14.15-2.14-28.25-4.5c-9.41-1.43-19-3.64-28.44-5.45s-19-3.64-28.32-5.75-18.58-4.5-27.89-6.68c-18.57-4-36.49-10-54.46-15.1-17.74-5.62-35.22-11.51-52.29-17.58-8.38-3.28-16.78-6.48-25.1-9.68-4.15-1.64-8.23-3.26-12.4-4.82-4-1.84-8-3.62-12-5.39-7.95-3.6-15.77-7.11-23.6-10.55-7.72-3.65-15.17-7.58-22.57-11.34-29.9-14.55-56.57-31.35-80.65-47.5-11.75-8.5-23.1-16.55-33.42-24.86-9.94-8.78-19.89-16.42-28.21-24.76q-6.29-6.27-12.19-12c-2-2-3.86-3.82-5.76-5.69s-3.38-4-5-5.9c-6.53-8-12.9-14.72-17.81-21.6s-9.14-13.05-12.87-18.4-6-10.56-8.27-14.39c-3.75-6.88-6-10.94-6.46-11.85.58.84,3.3,4.59,7.89,11,2.67,3.5,5.56,8.27,9.74,13.13s9.11,10.44,14.56,16.71a455.36,455.36,0,0,0,43.85,40.23c8.74,7.48,19.13,14.1,29.38,21.78q16,10.8,34,21.94c24.5,14.13,51.41,28.67,81,41.73,7.39,3.3,14.83,6.76,22.46,9.94,7.73,3,15.53,6.08,23.47,9.23,15.71,6.5,32.28,11.72,48.81,17.79,16.85,5.43,34,10.74,51.46,15.7,8.82,2.34,17.64,4.69,26.55,7,8.79,2.57,17.79,4.71,26.81,6.69,9.07,2.15,18.16,4.22,27.25,6.29s18.25,3.54,27.44,5.39c9.23,1.63,18.17,3.61,27.65,5l28.3,4.2,14.12,2.29,13.75,1.71c9.29,1.1,18.66,2.21,28,3.39,18.66,1.68,37.3,3.5,55.81,4.54,37,2,73.56,3.33,108.86,2.26,17.69-.22,35-1.8,52-2.43,8.47-.7,16.86-1.48,25.09-2.14q6.28-.52,12.36-1.09l12.11-1.59c8-1,16-2,23.82-3,7.7-1.34,15.4-2.6,22.85-3.82,15.12-2.18,29.4-5.63,43.3-8.51s26.75-7.06,39.29-10.13c12.21-4,24-7.35,34.85-11.34,10.63-4.25,20.92-7.69,30-11.84s17.55-7.69,24.82-11.55,13.82-7.42,19.46-10.5,10.22-6.37,14-8.7c5.81-3.75,9.51-6.17,10.94-7C1810.63,1346.86,1807.25,1349.71,1802,1354.06Z"/><path class="cls-2" d="M1304.57,900.36c-5.5-.75-10.94-1.4-16.31-2.05q25.65,3.86,50.08,8.72-13.66-2.4-27.68-4.31c-189.79-25.61-354.05,30.7-366.88,125.78S1074.4,1221.41,1264.19,1247s354-30.69,366.88-125.77c9.16-67.9-61.39-137.19-171.58-180.6l-9.41-3.61q-14.11-5.26-29-9.95,16.46,4.75,32.14,9.95l6.26,2.09c166.8,56.44,265.33,146.53,256,216C1703,1247.7,1496,1324.85,1219.08,1287.47c-126.06-17-231.75-53-308.4-96,77.71,52.76,195,98.14,338.73,117.55,276.93,37.37,484.48-44.28,497.52-140.92S1581.5,937.73,1304.57,900.36Z"/><path class="cls-3" d="M1445,1054.53q-8.62-31-41.63-53.38c-9.5-6.41-23.6-7.41-34.53-2.83s-15.49,13.11-11.59,21.88c1.7,3.8,5.56,6.61,9.36,9.46,18,13.48,26.3,29.3,24.72,47.4-1.41,16.18-10.69,30.19-27.85,41.45-26,17-57.19,22.7-92.4,16.79-24.56-4.13-43.46-13.93-57-28.35-9.12-9.74-13.82-20.41-14.29-32-.5-12.14,3.65-23.43,12.53-34,4.66-5.54,11-10.16,17-15,8.17-6.57,8.26-16.87.46-23.23-8.81-7.18-22.93-9.26-34.68-5.17-6.56,2.28-11.11,6-15.64,9.74-30.29,24.82-41.81,53.18-32.72,84.68,8.4,29.13,32.51,51.71,69.59,67.37,45.08,19,92.86,20.93,141.52,6.65,55.58-16.3,91-54.43,89.47-96.17A72.1,72.1,0,0,0,1445,1054.53Z"/><path class="cls-3" d="M1301.85,1037.82c13.09-2.18,21.18-9,21.22-18.16.09-17.23,0-34.46,0-51.68,0-4.16-1.72-8-5.62-11.26-7.81-6.55-20.16-8.77-32.15-5.87-10.58,2.56-17.24,9.33-17.25,17.6q0,12.76,0,25.52c0,8.44,0,16.88,0,25.31a13.7,13.7,0,0,0,2.85,9C1277,1036,1289.72,1039.84,1301.85,1037.82Z"/></svg>