<?xml version="1.0" encoding="UTF-8"?>
<svg id="Capa_1" data-name="Capa 1" xmlns="http://www.w3.org/2000/svg" viewBox="0 0 1081 1081">
  <defs>
    <style>
      .cls-1 {
        fill: #16f98a;
      }

      .cls-2 {
        font-family: Poppins-Bold, Poppins;
        font-size: 53.92px;
        font-weight: 700;
      }
    </style>
  </defs>
  <text class="cls-2" transform="translate(306.88 702.41)"><tspan x="0" y="0">ULTIMATE FRISBEE</tspan><tspan class="cls-1"><tspan x="115.51" y="64.7">TRACKER</tspan></tspan></text>
  <g>
    <path d="m302.2,319.81c-.71,0-1.42-.2-2.05-.63-5.22-3.53-8.72-9.11-9.86-15.7-1.25-7.25.54-15.01,4.78-20.77,1.2-1.63,3.5-1.99,5.14-.79,1.63,1.2,1.98,3.51.78,5.13-3.08,4.19-4.38,9.86-3.46,15.18.8,4.6,3.19,8.45,6.73,10.86,1.68,1.14,2.12,3.42.99,5.11-.71,1.05-1.87,1.61-3.05,1.61Z"/>
    <path d="m549.79,319.81c.71,0,1.42-.2,2.05-.63,5.22-3.53,8.72-9.11,9.86-15.7,1.25-7.25-.54-15.01-4.78-20.77-1.2-1.63-3.5-1.99-5.14-.79-1.63,1.2-1.98,3.51-.78,5.13,3.08,4.19,4.38,9.86,3.46,15.18-.8,4.6-3.19,8.45-6.73,10.86-1.68,1.14-2.12,3.42-.99,5.11.71,1.05,1.87,1.61,3.05,1.61Z"/>
    <path d="m542.89,640.44c-3.29,0-5.88-.12-7.61-.24-18.83-1.25-37.71-6.6-54.61-15.48-36.3-19.07-62.04-51.61-70.62-89.29-4.44-19.47-5.14-32.79-5.03-55.26.18-37.62-.05-77.22-.7-117.7-.2-12.7,9.93-23.16,22.63-23.37,12.69-.17,23.16,9.93,23.37,22.63.66,40.79.9,80.72.71,118.66-.11,21.62.69,30.83,3.88,44.82,5.51,24.19,23.14,46.17,47.16,58.79,11.25,5.91,23.79,9.47,36.27,10.3,7.18.48,44.38,1.44,71.54-26.72,8.74-9.06,14.68-18.51,18.16-28.9,1.09-3.26,2.1-7.62,2.99-12.96,2.6-15.65,2.91-32.42.9-49.84-1.45-12.62,7.6-24.03,20.22-25.48,12.62-1.44,24.03,7.6,25.48,20.22,2.5,21.69,2.08,42.77-1.22,62.65-1.31,7.85-2.86,14.4-4.75,20.04-5.62,16.77-15.27,32.31-28.66,46.2-17.71,18.37-40.89,31.22-67.01,37.17-13.44,3.06-25.23,3.75-33.08,3.75Z"/>
    <path d="m711.44,432.13h-101.62c-12.7,0-23-10.3-23-23v-126.64c0-12.7,10.3-23,23-23h181.28c12.7,0,23,10.3,23,23s-10.3,23-23,23h-158.28v80.64h78.62c12.7,0,23,10.3,23,23s-10.3,23-23,23Z"/>
    <path d="m522.51,323.51h-193.02c-12.7,0-23-10.3-23-23s10.3-23,23-23h193.02c12.7,0,23,10.3,23,23s-10.3,23-23,23Z"/>
  </g>
</svg>